<svg width="390" height="844" viewBox="0 0 390 844" fill="none" xmlns="http://www.w3.org/2000/svg">
<g clip-path="url(#clip0_1647_245)">
<rect width="390" height="844" fill="#95CA5B"/>
<path d="M51.5 460C35.3808 460 19.6237 464.78 6.22105 473.735C-7.18155 482.691 -17.6276 495.419 -23.7961 510.311C-29.9647 525.203 -31.5787 541.59 -28.434 557.4C-25.2893 573.209 -17.5271 587.731 -6.12917 599.129C5.26881 610.527 19.7907 618.289 35.6002 621.434C51.4096 624.579 67.7965 622.965 82.6887 616.796C97.5809 610.628 110.309 600.182 119.265 586.779C128.22 573.376 133 557.619 133 541.5C132.977 519.892 124.383 499.175 109.104 483.896C93.8247 468.617 73.1082 460.023 51.5 460ZM57.7692 490.86L77.196 477.499C88.3187 481.979 98.088 489.27 105.549 498.658L99.2794 519.769C99.1227 519.769 98.9581 519.848 98.8014 519.902L80.9184 525.709C80.6501 525.795 80.3882 525.9 80.1347 526.023L57.7692 510.64C57.7692 510.483 57.7692 510.318 57.7692 510.154V491.346C57.7692 491.182 57.7692 491.017 57.7692 490.86ZM25.8275 477.499L45.2308 490.86C45.2308 491.017 45.2308 491.182 45.2308 491.346V510.154C45.2308 510.318 45.2308 510.483 45.2308 510.64L22.8496 526.054C22.5962 525.931 22.3343 525.827 22.066 525.741L4.18301 519.934C4.02628 519.879 3.86171 519.84 3.70498 519.801L-2.56425 498.689C4.90332 489.284 14.6871 481.982 25.8275 477.499ZM15.64 578.661H-6.56872C-13.0697 568.553 -16.7966 556.913 -17.3753 544.909L-0.134922 531.681C0.0133834 531.746 0.165107 531.804 0.319596 531.853L18.2104 537.668C18.4496 537.74 18.693 537.798 18.9392 537.84L27.3948 562.463C27.2773 562.604 27.1597 562.745 27.05 562.894L16.0005 578.104C15.8704 578.283 15.75 578.469 15.64 578.661ZM69.2811 608.111C57.6301 611.214 45.3699 611.214 33.7189 608.111L25.8354 585.855C25.9372 585.729 26.0469 585.612 26.141 585.479L37.1983 570.26C37.3284 570.084 37.4488 569.901 37.5588 569.712H65.4412C65.5513 569.901 65.6716 570.084 65.8017 570.26L76.8591 585.479C76.9531 585.612 77.0628 585.729 77.1647 585.855L69.2811 608.111ZM87.36 578.637C87.25 578.445 87.1297 578.26 86.9995 578.081L75.9422 562.894C75.8325 562.745 75.7149 562.604 75.5974 562.463L84.053 537.84C84.2992 537.798 84.5426 537.74 84.7818 537.668L102.673 531.853C102.827 531.804 102.979 531.746 103.127 531.681L120.368 544.909C119.789 556.913 116.062 568.553 109.561 578.661L87.36 578.637Z" fill="#343330" fill-opacity="0.1"/>
<path d="M358.5 259C342.381 259 326.624 263.78 313.221 272.735C299.818 281.691 289.372 294.419 283.204 309.311C277.035 324.203 275.421 340.59 278.566 356.4C281.711 372.209 289.473 386.731 300.871 398.129C312.269 409.527 326.791 417.289 342.6 420.434C358.41 423.579 374.797 421.965 389.689 415.796C404.581 409.628 417.309 399.182 426.265 385.779C435.22 372.376 440 356.619 440 340.5C439.977 318.892 431.383 298.175 416.104 282.896C400.825 267.617 380.108 259.023 358.5 259ZM364.769 289.86L384.196 276.499C395.319 280.979 405.088 288.27 412.549 297.658L406.279 318.769C406.123 318.769 405.958 318.848 405.801 318.902L387.918 324.709C387.65 324.795 387.388 324.9 387.135 325.023L364.769 309.64C364.769 309.483 364.769 309.318 364.769 309.154V290.346C364.769 290.182 364.769 290.017 364.769 289.86ZM332.828 276.499L352.231 289.86C352.231 290.017 352.231 290.182 352.231 290.346V309.154C352.231 309.318 352.231 309.483 352.231 309.64L329.85 325.054C329.596 324.931 329.334 324.827 329.066 324.741L311.183 318.934C311.026 318.879 310.862 318.84 310.705 318.801L304.436 297.689C311.903 288.284 321.687 280.982 332.828 276.499ZM322.64 377.661H300.431C293.93 367.553 290.203 355.913 289.625 343.909L306.865 330.681C307.013 330.746 307.165 330.804 307.32 330.853L325.21 336.668C325.45 336.74 325.693 336.798 325.939 336.84L334.395 361.463C334.277 361.604 334.16 361.745 334.05 361.894L323.001 377.104C322.87 377.283 322.75 377.469 322.64 377.661ZM376.281 407.111C364.63 410.214 352.37 410.214 340.719 407.111L332.835 384.855C332.937 384.729 333.047 384.612 333.141 384.479L344.198 369.26C344.328 369.084 344.449 368.901 344.559 368.712H372.441C372.551 368.901 372.672 369.084 372.802 369.26L383.859 384.479C383.953 384.612 384.063 384.729 384.165 384.855L376.281 407.111ZM394.36 377.637C394.25 377.445 394.13 377.26 394 377.081L382.942 361.894C382.832 361.745 382.715 361.604 382.597 361.463L391.053 336.84C391.299 336.798 391.543 336.74 391.782 336.668L409.673 330.853C409.827 330.804 409.979 330.746 410.127 330.681L427.368 343.909C426.789 355.913 423.062 367.553 416.561 377.661L394.36 377.637Z" fill="#343330" fill-opacity="0.1"/>
<path d="M31.5 89C15.3808 89 -0.376343 93.7799 -13.7789 102.735C-27.1815 111.691 -37.6276 124.419 -43.7961 139.311C-49.9647 154.203 -51.5787 170.59 -48.434 186.4C-45.2893 202.209 -37.5271 216.731 -26.1292 228.129C-14.7312 239.527 -0.209286 247.289 15.6002 250.434C31.4096 253.579 47.7965 251.965 62.6887 245.796C77.5809 239.628 90.3094 229.182 99.2648 215.779C108.22 202.376 113 186.619 113 170.5C112.977 148.892 104.383 128.175 89.104 112.896C73.8247 97.6167 53.1082 89.0228 31.5 89ZM37.7692 119.86L57.196 106.499C68.3187 110.979 78.088 118.27 85.5486 127.658L79.2794 148.769C79.1227 148.769 78.9581 148.848 78.8014 148.902L60.9184 154.709C60.6501 154.795 60.3882 154.9 60.1347 155.023L37.7692 139.64C37.7692 139.483 37.7692 139.318 37.7692 139.154V120.346C37.7692 120.182 37.7692 120.017 37.7692 119.86ZM5.82752 106.499L25.2308 119.86C25.2308 120.017 25.2308 120.182 25.2308 120.346V139.154C25.2308 139.318 25.2308 139.483 25.2308 139.64L2.84964 155.054C2.59618 154.931 2.3343 154.827 2.06599 154.741L-15.817 148.934C-15.9737 148.879 -16.1383 148.84 -16.295 148.801L-22.5643 127.689C-15.0967 118.284 -5.31289 110.982 5.82752 106.499ZM-4.35998 207.661H-26.5687C-33.0697 197.553 -36.7966 185.913 -37.3753 173.909L-20.1349 160.681C-19.9866 160.746 -19.8349 160.804 -19.6804 160.853L-1.78959 166.668C-1.5504 166.74 -1.30701 166.798 -1.06079 166.84L7.39483 191.463C7.27728 191.604 7.15974 191.745 7.05003 191.894L-3.9995 207.104C-4.12963 207.283 -4.24997 207.469 -4.35998 207.661ZM49.2811 237.111C37.6301 240.214 25.3699 240.214 13.7189 237.111L5.83536 214.855C5.93724 214.729 6.04695 214.612 6.14098 214.479L17.1983 199.26C17.3284 199.084 17.4488 198.901 17.5588 198.712H45.4412C45.5513 198.901 45.6716 199.084 45.8017 199.26L56.8591 214.479C56.9531 214.612 57.0628 214.729 57.1647 214.855L49.2811 237.111ZM67.36 207.637C67.25 207.445 67.1297 207.26 66.9995 207.081L55.9422 191.894C55.8325 191.745 55.7149 191.604 55.5974 191.463L64.053 166.84C64.2992 166.798 64.5426 166.74 64.7818 166.668L82.6726 160.853C82.8271 160.804 82.9788 160.746 83.1271 160.681L100.368 173.909C99.7888 185.913 96.0619 197.553 89.5609 207.661L67.36 207.637Z" fill="#343330" fill-opacity="0.1"/>
</g>
<defs>
<clipPath id="clip0_1647_245">
<rect width="390" height="844" fill="white"/>
</clipPath>
</defs>
</svg>
