<svg width="20" height="17" viewBox="0 0 20 17" fill="none" xmlns="http://www.w3.org/2000/svg">
<path d="M19 12.1833C18.8764 12.0914 18.726 12.0417 18.5714 12.0417H17.8571V2.83333C17.8571 2.08189 17.5561 1.36122 17.0203 0.829864C16.4845 0.298511 15.7578 0 15 0H2.85714C2.09938 0 1.37266 0.298511 0.836838 0.829864C0.30102 1.36122 0 2.08189 0 2.83333C0 4.03839 0.897322 4.74052 1 4.81667C1.1233 4.90926 1.27391 4.95905 1.42857 4.95833C1.57744 4.95793 1.72246 4.91141 1.84336 4.82528C1.96427 4.73914 2.05501 4.6177 2.10291 4.47792C2.15082 4.33815 2.15348 4.18702 2.11054 4.04567C2.06759 3.90432 1.98119 3.7798 1.86339 3.68953C1.85982 3.6851 1.42857 3.34156 1.42857 2.83333C1.42857 2.45761 1.57908 2.09728 1.84699 1.8316C2.1149 1.56592 2.47826 1.41667 2.85714 1.41667C3.23602 1.41667 3.59939 1.56592 3.8673 1.8316C4.1352 2.09728 4.28571 2.45761 4.28571 2.83333V14.1667C4.28571 14.9181 4.58673 15.6388 5.12255 16.1701C5.65837 16.7015 6.3851 17 7.14286 17H17.1429C17.9006 17 18.6273 16.7015 19.1632 16.1701C19.699 15.6388 20 14.9181 20 14.1667C20 12.9616 19.1071 12.2595 19 12.1833ZM8.57143 5.66667H14.2857C14.4752 5.66667 14.6568 5.74129 14.7908 5.87413C14.9247 6.00697 15 6.18714 15 6.375C15 6.56286 14.9247 6.74303 14.7908 6.87587C14.6568 7.00871 14.4752 7.08333 14.2857 7.08333H8.57143C8.38199 7.08333 8.20031 7.00871 8.06635 6.87587C7.9324 6.74303 7.85714 6.56286 7.85714 6.375C7.85714 6.18714 7.9324 6.00697 8.06635 5.87413C8.20031 5.74129 8.38199 5.66667 8.57143 5.66667ZM7.85714 9.20833C7.85714 9.02047 7.9324 8.8403 8.06635 8.70747C8.20031 8.57463 8.38199 8.5 8.57143 8.5H14.2857C14.4752 8.5 14.6568 8.57463 14.7908 8.70747C14.9247 8.8403 15 9.02047 15 9.20833C15 9.39619 14.9247 9.57636 14.7908 9.7092C14.6568 9.84204 14.4752 9.91667 14.2857 9.91667H8.57143C8.38199 9.91667 8.20031 9.84204 8.06635 9.7092C7.9324 9.57636 7.85714 9.39619 7.85714 9.20833ZM17.1429 15.5833H8.90268C9.15424 15.1529 9.2864 14.6641 9.28571 14.1667C9.28589 13.9265 9.24947 13.6877 9.17768 13.4583H18.2848C18.4621 13.6534 18.5643 13.9042 18.5732 14.1667C18.5732 14.3529 18.5362 14.5372 18.4643 14.7092C18.3924 14.8812 18.287 15.0375 18.1542 15.169C18.0213 15.3006 17.8636 15.4049 17.6901 15.476C17.5166 15.5471 17.3306 15.5836 17.1429 15.5833Z" fill="#95CA5B"/>
</svg>
