<svg width="26" height="76" viewBox="0 0 26 76" fill="none" xmlns="http://www.w3.org/2000/svg">
<path d="M19.1444 50.8618C18.9079 51.3735 18.4875 52.5821 17.8148 53.8833C17.6572 54.2098 17.489 54.551 17.3208 54.8921C17.1579 55.2332 16.9477 55.5598 16.7638 55.8912C16.3749 56.5442 16.0491 57.2021 15.6707 57.7285C14.0783 60.2626 12.176 62.6165 10.1001 64.8193C8.01905 67.022 5.74879 69.0639 3.31036 70.945C2.52733 71.5055 1.1452 72.3925 1.80736 73.3087C2.49054 74.259 3.88844 74.1956 5.38618 73.1722C8.92821 70.6039 11.9132 67.4947 14.7983 64.3855C16.9004 62.0999 18.724 59.5755 20.1797 56.8854C21.6459 54.1953 22.8126 51.3736 23.748 48.4885C24.5836 45.891 25.0881 43.2106 25.4034 40.5107C25.6767 37.806 25.6504 35.0818 25.4507 32.3722C25.2878 31.1051 25.2089 29.8283 24.9567 28.5758C24.8411 27.9472 24.7675 27.3088 24.6151 26.685L24.1789 24.8136C23.5168 22.3379 22.7022 19.8768 21.5355 17.5522C20.5791 15.5248 19.3388 13.6292 18.0355 11.7919L16.9898 10.4566C16.6324 10.018 16.3066 9.55992 15.9177 9.1408C15.1557 8.29771 14.4462 7.42042 13.6317 6.62118C13.2585 6.23618 12.8959 5.77811 12.5228 5.30539C12.1287 4.85217 11.7135 4.39409 11.2773 3.9896C10.5889 3.29758 9.30134 2.27409 8.49728 1.71365C8.15569 1.4651 7.75629 1.26054 7.45675 0.977879C6.0536 -0.303822 5.40195 -0.274581 5.08663 1.09971C5.01306 1.40186 4.6557 1.59673 4.87642 2.0061C4.88693 2.02559 4.9027 2.05977 4.90795 2.07439C5.18122 2.76641 5.63318 3.23423 6.1587 3.63385C6.65795 4.06271 7.22552 4.43311 7.73002 4.87171C12.6069 9.23827 16.4747 14.5697 18.992 20.408C20.516 23.99 21.6196 27.7571 21.9454 31.5827C22.0663 32.6304 21.9349 33.6831 22.1031 34.7357V34.7163C22.1346 35.267 22.0873 35.8225 22.0611 36.3732C22.0295 36.9239 22.019 37.4746 21.998 38.0253C21.8088 42.2018 20.7578 46.4856 19.4072 50.3014C19.3756 50.4622 19.2337 50.6425 19.1444 50.8618Z" fill="white"/>
<path d="M4.94532 69.8293C4.9716 69.6247 5.03466 68.884 5.11874 68.4161C5.3237 67.3391 5.49187 66.2523 5.28691 65.1217C5.25538 64.9463 5.29217 64.6587 4.11499 64.5028C2.89052 64.3419 2.14428 64.4394 2.14428 64.7416C2.14428 65.4677 2.31244 66.223 1.98662 66.9053C1.51365 67.8995 1.5189 68.9619 1.28767 69.9902C1.24038 70.1998 1.20359 70.4093 1.1668 70.6189L0.988123 71.7398C0.867252 72.5049 0.75164 73.2652 0.604492 74.0449L1.13001 74.1228C1.9656 74.2495 2.78542 74.4201 3.68406 74.5907L4.0204 74.6541C4.1255 74.6736 4.2779 74.6979 4.30943 74.7125L4.65628 74.7954C4.88751 74.8442 5.124 74.888 5.36048 74.9124C6.1803 74.9952 7.03165 74.8052 7.86198 74.8003C8.05642 74.8003 8.26138 75.0293 8.47684 75.0342C8.65552 75.0391 8.94456 75.0634 9.12849 74.9903C9.20732 74.9562 9.2914 74.9123 9.35972 74.961C9.66978 75.1852 9.81167 74.8003 9.86423 73.538C9.87474 73.2603 9.95356 72.9045 9.89576 72.7047C9.89576 72.695 9.8905 72.6803 9.88525 72.6706C9.7381 71.886 9.44381 72.2076 9.19155 72.1588C7.95657 71.9298 6.71108 71.7788 5.47084 71.5984L4.89802 71.5253L4.66679 71.4961L4.60898 71.4864C4.54066 71.4669 4.47235 71.4376 4.48811 71.3645C4.49337 71.3304 4.60373 71.2281 4.58797 71.2378C4.58797 71.2378 4.57745 71.2427 4.55118 71.2525C4.59847 71.2037 4.68781 71.155 4.68781 71.155C4.68781 71.155 4.69307 71.1453 4.69832 71.1453L4.70884 71.1404H4.71409C4.71409 71.1453 4.71409 71.1404 4.71935 71.1062C4.79292 70.7164 4.85073 70.3264 4.85598 69.9512C4.877 69.9073 4.94006 69.8732 4.94532 69.8293Z" fill="white"/>
</svg>
