<svg width="15" height="12" viewBox="0 0 15 12" fill="none" xmlns="http://www.w3.org/2000/svg">
<path d="M0.183297 5.57552L5.80811 0.175824C5.92538 0.0632458 6.08444 0 6.25029 0C6.41613 0 6.57519 0.0632458 6.69246 0.175824C6.80973 0.288403 6.87561 0.441092 6.87561 0.600301C6.87561 0.75951 6.80973 0.912199 6.69246 1.02478L2.13401 5.40003L14.375 5.40003C14.5408 5.40003 14.6997 5.46324 14.8169 5.57576C14.9342 5.68828 15 5.84088 15 6C15 6.15912 14.9342 6.31173 14.8169 6.42424C14.6997 6.53676 14.5408 6.59997 14.375 6.59997L2.13401 6.59997L6.69246 10.9752C6.80973 11.0878 6.87561 11.2405 6.87561 11.3997C6.87561 11.5589 6.80973 11.7116 6.69246 11.8242C6.57519 11.9368 6.41613 12 6.25029 12C6.08444 12 5.92538 11.9368 5.80811 11.8242L0.183297 6.42448C0.125189 6.36876 0.0790901 6.30259 0.0476389 6.22975C0.0161867 6.15692 0 6.07885 0 6C0 5.92116 0.0161867 5.84308 0.0476389 5.77025C0.0790901 5.69741 0.125189 5.63124 0.183297 5.57552Z" fill="#10242A"/>
</svg>
