<svg width="27" height="76" viewBox="0 0 27 76" fill="none" xmlns="http://www.w3.org/2000/svg">
<path d="M7.56195 51.3462C7.80641 51.8579 8.24099 53.0665 8.93631 54.3677C9.09928 54.6942 9.27311 55.0354 9.44694 55.3765C9.61534 55.7176 9.83263 56.0442 10.0228 56.3756C10.4247 57.0286 10.7615 57.6865 11.1527 58.2128C12.7986 60.747 14.7651 63.1009 16.9108 65.3036C19.062 67.5064 21.4087 69.5483 23.9293 71.4294C24.7387 71.9898 26.1674 72.8769 25.4829 73.793C24.7767 74.7434 23.3318 74.68 21.7836 73.6566C18.1222 71.0883 15.0367 67.9791 12.0544 64.8698C9.88152 62.5842 7.99653 60.0599 6.4918 57.3697C4.97621 54.6796 3.77025 51.858 2.80331 48.9729C1.93958 46.3754 1.41809 43.695 1.09215 40.9951C0.809675 38.2904 0.836836 35.5662 1.04326 32.8566C1.21166 31.5895 1.29314 30.3127 1.55389 29.0602C1.6734 28.4315 1.74945 27.7932 1.90699 27.1694L2.35786 25.298C3.04233 22.8223 3.88433 20.3611 5.09028 18.0365C6.07895 16.0092 7.36096 14.1135 8.70816 12.2763L9.78918 10.941C10.1586 10.5024 10.4954 10.0443 10.8974 9.62518C11.685 8.78208 12.4184 7.90479 13.2604 7.10556C13.6461 6.72056 14.0209 6.26248 14.4066 5.78977C14.814 5.33654 15.2431 4.87847 15.694 4.47397C16.4057 3.78195 17.7365 2.75846 18.5677 2.19802C18.9208 1.94948 19.3336 1.74491 19.6433 1.46225C21.0937 0.180553 21.7673 0.209794 22.0932 1.58409C22.1693 1.88624 22.5387 2.08111 22.3105 2.49047C22.2996 2.50997 22.2833 2.54415 22.2779 2.55877C21.9954 3.25079 21.5283 3.71861 20.985 4.11823C20.469 4.54709 19.8823 4.91748 19.3608 5.35609C14.3197 9.72264 10.3215 15.0541 7.71949 20.8924C6.14414 24.4743 5.00337 28.2414 4.66657 32.067C4.54163 33.1148 4.67743 34.1674 4.5036 35.2201V35.2007C4.47101 35.7514 4.5199 36.3069 4.54706 36.8576C4.57965 37.4083 4.59052 37.959 4.61225 38.5096C4.80781 42.6861 5.89426 46.9699 7.29034 50.7858C7.32294 50.9466 7.46961 51.1269 7.56195 51.3462Z" fill="white"/>
<path d="M22.2393 70.3137C22.2121 70.109 22.1469 69.3683 22.06 68.9005C21.8482 67.8235 21.6743 66.7367 21.8862 65.6061C21.9188 65.4306 21.8808 65.1431 23.0976 64.9871C24.3633 64.8263 25.1347 64.9238 25.1347 65.2259C25.1347 65.9521 24.9608 66.7074 25.2976 67.3897C25.7865 68.3839 25.7811 69.4463 26.0201 70.4746C26.069 70.6841 26.107 70.8937 26.1451 71.1033L26.3298 72.2242C26.4547 72.9893 26.5742 73.7495 26.7263 74.5293L26.1831 74.6072C25.3194 74.7339 24.4719 74.9045 23.543 75.075L23.1954 75.1384C23.0867 75.1579 22.9292 75.1823 22.8966 75.1969L22.5381 75.2798C22.299 75.3285 22.0546 75.3724 21.8101 75.3968C20.9627 75.4796 20.0827 75.2895 19.2244 75.2847C19.0234 75.2847 18.8115 75.5137 18.5888 75.5186C18.4041 75.5235 18.1053 75.5478 17.9152 75.4747C17.8337 75.4406 17.7468 75.3967 17.6762 75.4454C17.3557 75.6696 17.209 75.2846 17.1547 74.0224C17.1438 73.7446 17.0624 73.3889 17.1221 73.1891C17.1221 73.1793 17.1275 73.1647 17.133 73.1549C17.2851 72.3703 17.5893 72.6919 17.85 72.6432C19.1266 72.4142 20.414 72.2631 21.6961 72.0828L22.2882 72.0097L22.5272 71.9805L22.5869 71.9707C22.6576 71.9512 22.7282 71.922 22.7119 71.8489C22.7065 71.8148 22.5924 71.7124 22.6087 71.7222C22.6087 71.7222 22.6195 71.7271 22.6467 71.7368C22.5978 71.6881 22.5055 71.6394 22.5055 71.6394C22.5055 71.6394 22.5 71.6296 22.4946 71.6296L22.4837 71.6248H22.4783C22.4783 71.6296 22.4783 71.6247 22.4729 71.5906C22.3968 71.2007 22.3371 70.8108 22.3316 70.4356C22.3099 70.3917 22.2447 70.3576 22.2393 70.3137Z" fill="white"/>
</svg>
