<svg width="24" height="20" viewBox="0 0 24 20" fill="none" xmlns="http://www.w3.org/2000/svg">
<path d="M0.293476 9.29316L9.29348 0.293163C9.48112 0.105522 9.73561 0.000106812 10.001 0.000106812C10.2663 0.000106812 10.5208 0.105522 10.7085 0.293163C10.8961 0.480804 11.0015 0.7353 11.0015 1.00066C11.0015 1.26603 10.8961 1.52052 10.7085 1.70816L3.41473 9.00066L23.001 9.00066C23.2662 9.00066 23.5205 9.10602 23.7081 9.29356C23.8956 9.48109 24.001 9.73545 24.001 10.0007C24.001 10.2659 23.8956 10.5202 23.7081 10.7078C23.5205 10.8953 23.2662 11.0007 23.001 11.0007L3.41473 11.0007L10.7085 18.2932C10.8961 18.4808 11.0015 18.7353 11.0015 19.0007C11.0015 19.266 10.8961 19.5205 10.7085 19.7082C10.5208 19.8958 10.2663 20.0012 10.001 20.0012C9.73561 20.0012 9.48112 19.8958 9.29348 19.7082L0.293476 10.7082C0.2005 10.6153 0.12674 10.505 0.076416 10.3836C0.0260925 10.2622 0.000190735 10.1321 0.000190735 10.0007C0.000190735 9.86925 0.0260925 9.73912 0.076416 9.61772C0.12674 9.49633 0.2005 9.38604 0.293476 9.29316Z" fill="#343330"/>
</svg>
