<svg width="164" height="164" viewBox="0 0 164 164" fill="none" xmlns="http://www.w3.org/2000/svg">
<path d="M81.7357 0.826111C65.6165 0.826111 49.8593 5.606 36.4567 14.5613C23.0541 23.5167 12.6081 36.2452 6.43951 51.1374C0.270973 66.0296 -1.343 82.4165 1.8017 98.226C4.94639 114.035 12.7085 128.557 24.1065 139.955C35.5045 151.353 50.0264 159.115 65.8358 162.26C81.6453 165.405 98.0322 163.791 112.924 157.622C127.817 151.454 140.545 141.008 149.5 127.605C158.456 114.202 163.236 98.4453 163.236 82.3261C163.213 60.718 154.619 40.0014 139.34 24.7221C124.06 9.44284 103.344 0.848929 81.7357 0.826111ZM88.0049 31.6864L107.432 18.3251C118.554 22.8056 128.324 30.0961 135.784 39.4837L129.515 60.5954C129.358 60.5954 129.194 60.6737 129.037 60.7286L111.154 66.5355C110.886 66.6213 110.624 66.726 110.37 66.8489L88.0049 51.4658C88.0049 51.3091 88.0049 51.1445 88.0049 50.9799V32.1723C88.0049 32.0077 88.0049 31.8431 88.0049 31.6864ZM56.0632 18.3251L75.4665 31.6864C75.4665 31.8431 75.4665 32.0077 75.4665 32.1723V50.9799C75.4665 51.1445 75.4665 51.3091 75.4665 51.4658L53.0853 66.8803C52.8318 66.7574 52.57 66.6526 52.3016 66.5668L34.4187 60.7599C34.2619 60.7051 34.0974 60.6659 33.9406 60.6267L27.6714 39.5151C35.139 30.1106 44.9228 22.8085 56.0632 18.3251ZM45.8757 119.487H23.6669C17.166 109.379 13.439 97.7389 12.8604 85.735L30.1007 72.5069C30.249 72.5725 30.4008 72.63 30.5553 72.6793L48.4461 78.494C48.6853 78.5663 48.9286 78.6239 49.1749 78.6664L57.6305 103.289C57.5129 103.43 57.3954 103.571 57.2857 103.72L46.2362 118.931C46.106 119.109 45.9857 119.295 45.8757 119.487ZM99.5168 148.937C87.8658 152.04 75.6056 152.04 63.9546 148.937L56.071 126.681C56.1729 126.556 56.2826 126.438 56.3766 126.305L67.434 111.086C67.5641 110.91 67.6844 110.727 67.7945 110.538H95.6769C95.7869 110.727 95.9073 110.91 96.0374 111.086L107.095 126.305C107.189 126.438 107.298 126.556 107.4 126.681L99.5168 148.937ZM117.596 119.463C117.486 119.272 117.365 119.086 117.235 118.907L106.178 103.72C106.068 103.571 105.951 103.43 105.833 103.289L114.289 78.6664C114.535 78.6239 114.778 78.5663 115.017 78.494L132.908 72.6793C133.063 72.63 133.214 72.5725 133.363 72.5069L150.603 85.735C150.025 97.7389 146.298 109.379 139.797 119.487L117.596 119.463Z" fill="#343330" fill-opacity="0.1"/>
</svg>
