<svg width="65" height="67" viewBox="0 0 65 67" fill="none" xmlns="http://www.w3.org/2000/svg">
<path d="M30 4.96296V2.48148C30 1.82335 30.2634 1.19218 30.7322 0.726809C31.2011 0.261441 31.837 0 32.5 0C33.163 0 33.7989 0.261441 34.2678 0.726809C34.7366 1.19218 35 1.82335 35 2.48148V4.96296C35 5.62109 34.7366 6.25227 34.2678 6.71764C33.7989 7.183 33.163 7.44444 32.5 7.44444C31.837 7.44444 31.2011 7.183 30.7322 6.71764C30.2634 6.25227 30 5.62109 30 4.96296ZM55 14.8889C55.3284 14.8891 55.6536 14.8252 55.9571 14.7006C56.2606 14.5761 56.5364 14.3934 56.7688 14.1631L59.2688 11.6816C59.7379 11.2159 60.0014 10.5844 60.0014 9.92593C60.0014 9.26743 59.7379 8.63591 59.2688 8.17028C58.7996 7.70465 58.1634 7.44307 57.5 7.44307C56.8366 7.44307 56.2004 7.70465 55.7312 8.17028L53.2312 10.6518C52.8812 10.9988 52.6428 11.4411 52.5462 11.9228C52.4496 12.4044 52.4991 12.9036 52.6884 13.3573C52.8778 13.811 53.1986 14.1987 53.61 14.4713C54.0215 14.7439 54.5053 14.8893 55 14.8889ZM8.23125 14.1631C8.46353 14.3936 8.73928 14.5765 9.04276 14.7013C9.34624 14.826 9.67151 14.8903 10 14.8903C10.3285 14.8903 10.6538 14.826 10.9572 14.7013C11.2607 14.5765 11.5365 14.3936 11.7688 14.1631C12.001 13.9325 12.1853 13.6588 12.311 13.3576C12.4367 13.0563 12.5014 12.7335 12.5014 12.4074C12.5014 12.0814 12.4367 11.7585 12.311 11.4573C12.1853 11.156 12.001 10.8823 11.7688 10.6518L9.26875 8.17028C8.79965 7.70465 8.16341 7.44307 7.5 7.44307C6.83659 7.44307 6.20035 7.70465 5.73125 8.17028C5.26215 8.63591 4.99861 9.26743 4.99861 9.92593C4.99861 10.5844 5.26215 11.2159 5.73125 11.6816L8.23125 14.1631ZM65 54.5926V62.037C65 63.3533 64.4732 64.6156 63.5355 65.5464C62.5979 66.4771 61.3261 67 60 67H5C3.67392 67 2.40215 66.4771 1.46447 65.5464C0.526784 64.6156 0 63.3533 0 62.037V54.5926C0 53.2763 0.526784 52.014 1.46447 51.0833C2.40215 50.1525 3.67392 49.6296 5 49.6296V39.7037C4.99989 36.1016 5.71808 32.535 7.11316 29.2096C8.50824 25.8843 10.5526 22.8659 13.1284 20.3285C15.7043 17.791 18.7606 15.7847 22.1213 14.4253C25.4819 13.0658 29.0804 12.38 32.7094 12.4074C47.7562 12.5191 60 24.9048 60 40.0139V49.6296C61.3261 49.6296 62.5979 50.1525 63.5355 51.0833C64.4732 52.014 65 53.2763 65 54.5926ZM34.5875 27.2622C40.5219 28.2517 45 33.5993 45 39.7037C45 40.3618 45.2634 40.993 45.7322 41.4584C46.2011 41.9237 46.837 42.1852 47.5 42.1852C48.163 42.1852 48.7989 41.9237 49.2678 41.4584C49.7366 40.993 50 40.3618 50 39.7037C50 31.2046 43.7281 23.7509 35.4125 22.3675C35.0873 22.3104 34.7539 22.3178 34.4316 22.3893C34.1093 22.4609 33.8045 22.5951 33.5348 22.7842C33.265 22.9733 33.0357 23.2136 32.86 23.4912C32.6844 23.7688 32.5659 24.0782 32.5114 24.4016C32.4569 24.7249 32.4675 25.0557 32.5425 25.3749C32.6176 25.6942 32.7556 25.9955 32.9487 26.2615C33.1417 26.5274 33.3859 26.7528 33.6672 26.9246C33.9485 27.0963 34.2613 27.2111 34.5875 27.2622ZM60 62.037V54.5926H5V62.037H60Z" fill="#EA5E5E"/>
</svg>
