<svg width="25" height="20" viewBox="0 0 25 20" fill="none" xmlns="http://www.w3.org/2000/svg">
<path opacity="0.7" d="M23.3333 2.5H20.8333V0.833333C20.8333 0.61232 20.7455 0.400358 20.5893 0.244078C20.433 0.0877975 20.221 0 20 0H5C4.77899 0 4.56702 0.0877975 4.41074 0.244078C4.25446 0.400358 4.16667 0.61232 4.16667 0.833333V2.5H1.66667C1.22464 2.5 0.800716 2.6756 0.488155 2.98816C0.175595 3.30072 0 3.72464 0 4.16667V5.83333C0 6.9384 0.438987 7.99821 1.22039 8.77961C1.6073 9.16652 2.06663 9.47344 2.57215 9.68283C3.07768 9.89223 3.61949 10 4.16667 10H4.54688C5.03776 11.5556 5.97371 12.9333 7.23907 13.9628C8.50442 14.9923 10.0437 15.6285 11.6667 15.7927V18.3333H9.16667C8.94565 18.3333 8.73369 18.4211 8.57741 18.5774C8.42113 18.7337 8.33333 18.9457 8.33333 19.1667C8.33333 19.3877 8.42113 19.5996 8.57741 19.7559C8.73369 19.9122 8.94565 20 9.16667 20H15.8333C16.0543 20 16.2663 19.9122 16.4226 19.7559C16.5789 19.5996 16.6667 19.3877 16.6667 19.1667C16.6667 18.9457 16.5789 18.7337 16.4226 18.5774C16.2663 18.4211 16.0543 18.3333 15.8333 18.3333H13.3333V15.7896C16.6604 15.4531 19.4208 13.1187 20.425 10H20.8333C21.9384 10 22.9982 9.56101 23.7796 8.77961C24.561 7.99821 25 6.9384 25 5.83333V4.16667C25 3.72464 24.8244 3.30072 24.5118 2.98816C24.1993 2.6756 23.7754 2.5 23.3333 2.5ZM4.16667 8.33333C3.50363 8.33333 2.86774 8.06994 2.3989 7.6011C1.93006 7.13226 1.66667 6.49637 1.66667 5.83333V4.16667H4.16667V7.5C4.16667 7.77778 4.18021 8.05556 4.20729 8.33333H4.16667ZM23.3333 5.83333C23.3333 6.49637 23.0699 7.13226 22.6011 7.6011C22.1323 8.06994 21.4964 8.33333 20.8333 8.33333H20.7812C20.8154 8.02548 20.8328 7.71599 20.8333 7.40625V4.16667H23.3333V5.83333Z" fill="#FFBF00"/>
</svg>
