<svg width="16" height="14" viewBox="0 0 16 14" fill="none" xmlns="http://www.w3.org/2000/svg">
<path d="M14.7876 1.24396C14.0113 0.453923 12.96 0.00964426 11.8636 0.00827868C10.7672 0.00691309 9.71484 0.448572 8.93669 1.23668L8.00249 2.12208L7.06758 1.23376C6.28962 0.442229 5.23535 -0.00156746 4.13669 4.16e-06C3.03803 0.00157578 1.98499 0.448387 1.20921 1.24214C0.433427 2.0359 -0.00153625 3.11158 4.07712e-06 4.23255C0.0015444 5.35352 0.439462 6.42795 1.21742 7.21949L7.59896 13.8261C7.65213 13.8812 7.7155 13.9249 7.78539 13.9548C7.85528 13.9846 7.9303 14 8.00607 14C8.08184 14 8.15685 13.9846 8.22674 13.9548C8.29663 13.9249 8.36 13.8812 8.41317 13.8261L14.7876 7.21949C15.5639 6.42692 16 5.35225 16 4.23173C16 3.1112 15.5639 2.03653 14.7876 1.24396ZM13.9769 6.4004L8.00249 12.5829L2.02449 6.39457C1.4619 5.82056 1.14585 5.04204 1.14585 4.23027C1.14585 3.4185 1.4619 2.63997 2.02449 2.06596C2.58707 1.49195 3.3501 1.16948 4.14572 1.16948C4.94133 1.16948 5.70436 1.49195 6.26694 2.06596L6.28123 2.08054L7.61325 3.34487C7.71898 3.44527 7.85806 3.50108 8.00249 3.50108C8.14693 3.50108 8.28601 3.44527 8.39174 3.34487L9.72376 2.08054L9.73805 2.06596C10.301 1.49234 11.0643 1.17039 11.8599 1.17094C12.6555 1.17148 13.4183 1.49448 13.9805 2.06888C14.5427 2.64327 14.8583 3.42201 14.8577 4.23379C14.8572 5.04556 14.5406 5.82386 13.9776 6.39749L13.9769 6.4004Z" fill="#0B181D"/>
</svg>
