<svg width="19" height="16" viewBox="0 0 19 16" fill="none" xmlns="http://www.w3.org/2000/svg">
<path d="M19 4.83713C19.0014 5.47175 18.8748 6.10036 18.6273 6.68659C18.3798 7.27283 18.0164 7.80505 17.5581 8.25247L9.9842 15.8012C9.92107 15.8642 9.84581 15.9142 9.76282 15.9483C9.67982 15.9824 9.59074 16 9.50076 16C9.41078 16 9.3217 15.9824 9.23871 15.9483C9.15571 15.9142 9.08045 15.8642 9.01732 15.8012L1.44338 8.25247C0.519997 7.34666 0.000796196 6.11769 9.14961e-07 4.83591C-0.000794366 3.55413 0.516881 2.32453 1.43914 1.41763C2.36141 0.510717 3.61271 0.000782006 4.91778 8.98676e-07C6.22285 -0.000780208 7.47479 0.507656 8.39817 1.41346L9.50076 2.42557L10.611 1.41013C11.3001 0.736714 12.1768 0.278906 13.1306 0.0944993C14.0844 -0.0899069 15.0724 0.00735628 15.9699 0.37401C16.8675 0.740663 17.6343 1.36027 18.1736 2.15461C18.7128 2.94894 19.0004 3.8824 19 4.83713Z" fill="#FF0A0A" fill-opacity="0.85"/>
</svg>
