<svg width="36" height="36" viewBox="0 0 36 36" fill="none" xmlns="http://www.w3.org/2000/svg">
<g filter="url(#filter0_d_115_3921)">
<g filter="url(#filter1_d_115_3921)">
<rect x="2.00073" y="2" width="32" height="32" rx="5" fill="white"/>
</g>
<path d="M7.00073 13.0039H11.1257C11.346 13.8637 11.8464 14.6257 12.548 15.1699C13.2497 15.714 14.1126 16.0094 15.0007 16.0094C15.8889 16.0094 16.7518 15.714 17.4534 15.1699C18.155 14.6257 18.6554 13.8637 18.8757 13.0039H29.0007C29.2659 13.0039 29.5203 12.8986 29.7078 12.7113C29.8954 12.5239 30.0007 12.2697 30.0007 12.0047C30.0007 11.7397 29.8954 11.4855 29.7078 11.2982C29.5203 11.1108 29.2659 11.0055 29.0007 11.0055H18.8757C18.6554 10.1457 18.155 9.38372 17.4534 8.83955C16.7518 8.29537 15.8889 8 15.0007 8C14.1126 8 13.2497 8.29537 12.548 8.83955C11.8464 9.38372 11.346 10.1457 11.1257 11.0055H7.00073C6.73552 11.0055 6.48116 11.1108 6.29363 11.2982C6.10609 11.4855 6.00073 11.7397 6.00073 12.0047C6.00073 12.2697 6.10609 12.5239 6.29363 12.7113C6.48116 12.8986 6.73552 13.0039 7.00073 13.0039ZM15.0007 10.0063C15.3963 10.0063 15.783 10.1235 16.1119 10.3431C16.4408 10.5627 16.6971 10.8748 16.8485 11.2399C16.9999 11.6051 17.0395 12.0069 16.9623 12.3946C16.8851 12.7822 16.6947 13.1383 16.4149 13.4178C16.1352 13.6973 15.7789 13.8876 15.3909 13.9647C15.003 14.0418 14.6008 14.0023 14.2354 13.851C13.8699 13.6998 13.5576 13.4436 13.3378 13.115C13.118 12.7863 13.0007 12.4 13.0007 12.0047C13.0007 11.4747 13.2114 10.9664 13.5865 10.5916C13.9616 10.2168 14.4703 10.0063 15.0007 10.0063ZM29.0007 22.9961H26.8757C26.6554 22.1363 26.155 21.3743 25.4534 20.8301C24.7518 20.286 23.8889 19.9906 23.0007 19.9906C22.1126 19.9906 21.2497 20.286 20.548 20.8301C19.8464 21.3743 19.346 22.1363 19.1257 22.9961H7.00073C6.73552 22.9961 6.48116 23.1014 6.29363 23.2887C6.10609 23.4761 6.00073 23.7303 6.00073 23.9953C6.00073 24.2603 6.10609 24.5145 6.29363 24.7019C6.48116 24.8892 6.73552 24.9945 7.00073 24.9945H19.1257C19.346 25.8543 19.8464 26.6163 20.548 27.1605C21.2497 27.7046 22.1126 28 23.0007 28C23.8889 28 24.7518 27.7046 25.4534 27.1605C26.155 26.6163 26.6554 25.8543 26.8757 24.9945H29.0007C29.2659 24.9945 29.5203 24.8892 29.7078 24.7019C29.8954 24.5145 30.0007 24.2603 30.0007 23.9953C30.0007 23.7303 29.8954 23.4761 29.7078 23.2887C29.5203 23.1014 29.2659 22.9961 29.0007 22.9961ZM23.0007 25.9937C22.6052 25.9937 22.2185 25.8765 21.8896 25.6569C21.5607 25.4373 21.3043 25.1252 21.153 24.7601C21.0016 24.3949 20.962 23.9931 21.0392 23.6054C21.1163 23.2178 21.3068 22.8617 21.5865 22.5822C21.8662 22.3027 22.2226 22.1124 22.6106 22.0353C22.9985 21.9582 23.4006 21.9977 23.7661 22.149C24.1316 22.3002 24.4439 22.5564 24.6637 22.885C24.8834 23.2137 25.0007 23.6 25.0007 23.9953C25.0007 24.5253 24.79 25.0336 24.4149 25.4084C24.0399 25.7832 23.5312 25.9937 23.0007 25.9937Z" fill="#343330"/>
</g>
<defs>
<filter id="filter0_d_115_3921" x="0.000732422" y="0" width="36" height="36" filterUnits="userSpaceOnUse" color-interpolation-filters="sRGB">
<feFlood flood-opacity="0" result="BackgroundImageFix"/>
<feColorMatrix in="SourceAlpha" type="matrix" values="0 0 0 0 0 0 0 0 0 0 0 0 0 0 0 0 0 0 127 0" result="hardAlpha"/>
<feOffset/>
<feGaussianBlur stdDeviation="1"/>
<feComposite in2="hardAlpha" operator="out"/>
<feColorMatrix type="matrix" values="0 0 0 0 0 0 0 0 0 0 0 0 0 0 0 0 0 0 0.15 0"/>
<feBlend mode="normal" in2="BackgroundImageFix" result="effect1_dropShadow_115_3921"/>
<feBlend mode="normal" in="SourceGraphic" in2="effect1_dropShadow_115_3921" result="shape"/>
</filter>
<filter id="filter1_d_115_3921" x="0.000732422" y="0" width="36" height="36" filterUnits="userSpaceOnUse" color-interpolation-filters="sRGB">
<feFlood flood-opacity="0" result="BackgroundImageFix"/>
<feColorMatrix in="SourceAlpha" type="matrix" values="0 0 0 0 0 0 0 0 0 0 0 0 0 0 0 0 0 0 127 0" result="hardAlpha"/>
<feOffset/>
<feGaussianBlur stdDeviation="1"/>
<feComposite in2="hardAlpha" operator="out"/>
<feColorMatrix type="matrix" values="0 0 0 0 0 0 0 0 0 0 0 0 0 0 0 0 0 0 0.15 0"/>
<feBlend mode="normal" in2="BackgroundImageFix" result="effect1_dropShadow_115_3921"/>
<feBlend mode="normal" in="SourceGraphic" in2="effect1_dropShadow_115_3921" result="shape"/>
</filter>
</defs>
</svg>
