<svg width="52" height="8" viewBox="0 0 52 8" fill="none" xmlns="http://www.w3.org/2000/svg">
<path d="M8.29835 3.66128L6.69027 5.09966L7.1802 7.25074C7.20723 7.36751 7.20027 7.48997 7.1602 7.60264C7.12012 7.71532 7.04873 7.81315 6.95505 7.88379C6.86136 7.95443 6.74958 7.9947 6.63383 7.99951C6.51807 8.00433 6.40354 7.97347 6.30469 7.91085L4.50007 6.75955L2.69438 7.91085C2.59555 7.97311 2.48115 8.00367 2.36559 7.99868C2.25004 7.99369 2.13849 7.95336 2.045 7.88279C1.95151 7.81221 1.88025 7.71454 1.84021 7.60207C1.80016 7.4896 1.79311 7.36736 1.81994 7.25074L2.31166 5.09966L0.703578 3.66128C0.616134 3.58293 0.552892 3.47962 0.521752 3.36425C0.490612 3.24887 0.492952 3.12654 0.528482 3.01253C0.564011 2.89852 0.631155 2.79789 0.721528 2.72321C0.8119 2.64852 0.921496 2.60309 1.03663 2.59259L3.145 2.41626L3.95833 0.375935C4.00235 0.264738 4.07728 0.169623 4.17359 0.102683C4.26989 0.0357423 4.38323 0 4.49918 0C4.61513 0 4.72846 0.0357423 4.82477 0.102683C4.92108 0.169623 4.99601 0.264738 5.04003 0.375935L5.853 2.41626L7.96137 2.59259C8.07673 2.6027 8.18665 2.64788 8.27735 2.72246C8.36805 2.79704 8.4355 2.89771 8.47125 3.01186C8.507 3.126 8.50946 3.24855 8.47833 3.36414C8.44719 3.47972 8.38384 3.58322 8.29621 3.66165L8.29835 3.66128Z" fill="#10242A"/>
<path d="M19.2984 3.66128L17.6903 5.09966L18.1802 7.25074C18.2072 7.36751 18.2003 7.48997 18.1602 7.60264C18.1201 7.71532 18.0487 7.81315 17.955 7.88379C17.8614 7.95443 17.7496 7.9947 17.6338 7.99951C17.5181 8.00433 17.4035 7.97347 17.3047 7.91085L15.5001 6.75955L13.6944 7.91085C13.5955 7.97311 13.4811 8.00367 13.3656 7.99868C13.25 7.99369 13.1385 7.95336 13.045 7.88279C12.9515 7.81221 12.8803 7.71454 12.8402 7.60207C12.8002 7.4896 12.7931 7.36736 12.8199 7.25074L13.3117 5.09966L11.7036 3.66128C11.6161 3.58293 11.5529 3.47962 11.5218 3.36425C11.4906 3.24887 11.493 3.12654 11.5285 3.01253C11.564 2.89852 11.6312 2.79789 11.7215 2.72321C11.8119 2.64852 11.9215 2.60309 12.0366 2.59259L14.145 2.41626L14.9583 0.375935C15.0024 0.264738 15.0773 0.169623 15.1736 0.102683C15.2699 0.0357423 15.3832 0 15.4992 0C15.6151 0 15.7285 0.0357423 15.8248 0.102683C15.9211 0.169623 15.996 0.264738 16.04 0.375935L16.853 2.41626L18.9614 2.59259C19.0767 2.6027 19.1866 2.64788 19.2773 2.72246C19.368 2.79704 19.4355 2.89771 19.4713 3.01186C19.507 3.126 19.5095 3.24855 19.4783 3.36414C19.4472 3.47972 19.3838 3.58322 19.2962 3.66165L19.2984 3.66128Z" fill="#10242A"/>
<path d="M30.2731 3.66128L28.4641 5.09966L29.0152 7.25074C29.0456 7.36751 29.0378 7.48997 28.9927 7.60264C28.9476 7.71532 28.8673 7.81315 28.7619 7.88379C28.6565 7.95443 28.5308 7.9947 28.4006 7.99951C28.2703 8.00433 28.1415 7.97347 28.0303 7.91085L26.0001 6.75955L23.9687 7.91085C23.8575 7.97311 23.7288 8.00367 23.5988 7.99868C23.4688 7.99369 23.3433 7.95336 23.2381 7.88279C23.1329 7.81221 23.0528 7.71454 23.0077 7.60207C22.9627 7.4896 22.9547 7.36736 22.9849 7.25074L23.5381 5.09966L21.729 3.66128C21.6307 3.58293 21.5595 3.47962 21.5245 3.36425C21.4894 3.24887 21.4921 3.12654 21.532 3.01253C21.572 2.89852 21.6475 2.79789 21.7492 2.72321C21.8509 2.64852 21.9742 2.60309 22.1037 2.59259L24.4756 2.41626L25.3906 0.375935C25.4401 0.264738 25.5244 0.169623 25.6328 0.102683C25.7411 0.0357423 25.8686 0 25.9991 0C26.1295 0 26.257 0.0357423 26.3654 0.102683C26.4737 0.169623 26.558 0.264738 26.6075 0.375935L27.5221 2.41626L29.894 2.59259C30.0238 2.6027 30.1475 2.64788 30.2495 2.72246C30.3516 2.79704 30.4274 2.89771 30.4677 3.01186C30.5079 3.126 30.5106 3.24855 30.4756 3.36414C30.4406 3.47972 30.3693 3.58322 30.2707 3.66165L30.2731 3.66128Z" fill="#10242A"/>
<path d="M40.2984 3.66128L38.6903 5.09966L39.1802 7.25074C39.2072 7.36751 39.2003 7.48997 39.1602 7.60264C39.1201 7.71532 39.0487 7.81315 38.955 7.88379C38.8614 7.95443 38.7496 7.9947 38.6338 7.99951C38.5181 8.00433 38.4035 7.97347 38.3047 7.91085L36.5001 6.75955L34.6944 7.91085C34.5955 7.97311 34.4811 8.00367 34.3656 7.99868C34.25 7.99369 34.1385 7.95336 34.045 7.88279C33.9515 7.81221 33.8803 7.71454 33.8402 7.60207C33.8002 7.4896 33.7931 7.36736 33.8199 7.25074L34.3117 5.09966L32.7036 3.66128C32.6161 3.58293 32.5529 3.47962 32.5218 3.36425C32.4906 3.24887 32.493 3.12654 32.5285 3.01253C32.564 2.89852 32.6312 2.79789 32.7215 2.72321C32.8119 2.64852 32.9215 2.60309 33.0366 2.59259L35.145 2.41626L35.9583 0.375935C36.0024 0.264738 36.0773 0.169623 36.1736 0.102683C36.2699 0.0357423 36.3832 0 36.4992 0C36.6151 0 36.7285 0.0357423 36.8248 0.102683C36.9211 0.169623 36.996 0.264738 37.04 0.375935L37.853 2.41626L39.9614 2.59259C40.0767 2.6027 40.1866 2.64788 40.2773 2.72246C40.368 2.79704 40.4355 2.89771 40.4713 3.01186C40.507 3.126 40.5095 3.24855 40.4783 3.36414C40.4472 3.47972 40.3838 3.58322 40.2962 3.66165L40.2984 3.66128Z" fill="#10242A"/>
<path d="M51.2984 3.66128L49.6903 5.09966L50.1802 7.25074C50.2072 7.36751 50.2003 7.48997 50.1602 7.60264C50.1201 7.71532 50.0487 7.81315 49.955 7.88379C49.8614 7.95443 49.7496 7.9947 49.6338 7.99951C49.5181 8.00433 49.4035 7.97347 49.3047 7.91085L47.5001 6.75955L45.6944 7.91085C45.5955 7.97311 45.4811 8.00367 45.3656 7.99868C45.25 7.99369 45.1385 7.95336 45.045 7.88279C44.9515 7.81221 44.8803 7.71454 44.8402 7.60207C44.8002 7.4896 44.7931 7.36736 44.8199 7.25074L45.3117 5.09966L43.7036 3.66128C43.6161 3.58293 43.5529 3.47962 43.5218 3.36425C43.4906 3.24887 43.493 3.12654 43.5285 3.01253C43.564 2.89852 43.6312 2.79789 43.7215 2.72321C43.8119 2.64852 43.9215 2.60309 44.0366 2.59259L46.145 2.41626L46.9583 0.375935C47.0024 0.264738 47.0773 0.169623 47.1736 0.102683C47.2699 0.0357423 47.3832 0 47.4992 0C47.6151 0 47.7285 0.0357423 47.8248 0.102683C47.9211 0.169623 47.996 0.264738 48.04 0.375935L48.853 2.41626L50.9614 2.59259C51.0767 2.6027 51.1866 2.64788 51.2773 2.72246C51.368 2.79704 51.4355 2.89771 51.4713 3.01186C51.507 3.126 51.5095 3.24855 51.4783 3.36414C51.4472 3.47972 51.3838 3.58322 51.2962 3.66165L51.2984 3.66128Z" fill="#10242A"/>
</svg>
