<svg width="28" height="28" viewBox="0 0 28 28" fill="none" xmlns="http://www.w3.org/2000/svg">
<g filter="url(#filter0_d_446_4713)">
<rect x="2" y="2" width="24" height="24" rx="5" fill="white"/>
</g>
<path d="M20.7876 8.24396C20.0113 7.45392 18.96 7.00964 17.8636 7.00828C16.7672 7.00691 15.7148 7.44857 14.9367 8.23668L14.0025 9.12208L13.0676 8.23376C12.2896 7.44223 11.2354 6.99843 10.1367 7C9.03803 7.00158 7.98499 7.44839 7.20921 8.24214C6.43343 9.0359 5.99846 10.1116 6 11.2326C6.00154 12.3535 6.43946 13.428 7.21742 14.2195L13.599 20.8261C13.6521 20.8812 13.7155 20.9249 13.7854 20.9548C13.8553 20.9846 13.9303 21 14.0061 21C14.0818 21 14.1568 20.9846 14.2267 20.9548C14.2966 20.9249 14.36 20.8812 14.4132 20.8261L20.7876 14.2195C21.5639 13.4269 22 12.3523 22 11.2317C22 10.1112 21.5639 9.03653 20.7876 8.24396ZM19.9769 13.4004L14.0025 19.5829L8.02449 13.3946C7.4619 12.8206 7.14585 12.042 7.14585 11.2303C7.14585 10.4185 7.4619 9.63997 8.02449 9.06596C8.58707 8.49195 9.3501 8.16948 10.1457 8.16948C10.9413 8.16948 11.7044 8.49195 12.2669 9.06596L12.2812 9.08054L13.6132 10.3449C13.719 10.4453 13.8581 10.5011 14.0025 10.5011C14.1469 10.5011 14.286 10.4453 14.3917 10.3449L15.7238 9.08054L15.738 9.06596C16.301 8.49234 17.0643 8.17039 17.8599 8.17094C18.6555 8.17148 19.4183 8.49448 19.9805 9.06888C20.5427 9.64327 20.8583 10.422 20.8577 11.2338C20.8572 12.0456 20.5406 12.8239 19.9776 13.3975L19.9769 13.4004Z" fill="#0B181D"/>
<defs>
<filter id="filter0_d_446_4713" x="0" y="0" width="28" height="28" filterUnits="userSpaceOnUse" color-interpolation-filters="sRGB">
<feFlood flood-opacity="0" result="BackgroundImageFix"/>
<feColorMatrix in="SourceAlpha" type="matrix" values="0 0 0 0 0 0 0 0 0 0 0 0 0 0 0 0 0 0 127 0" result="hardAlpha"/>
<feOffset/>
<feGaussianBlur stdDeviation="1"/>
<feComposite in2="hardAlpha" operator="out"/>
<feColorMatrix type="matrix" values="0 0 0 0 0 0 0 0 0 0 0 0 0 0 0 0 0 0 0.15 0"/>
<feBlend mode="normal" in2="BackgroundImageFix" result="effect1_dropShadow_446_4713"/>
<feBlend mode="normal" in="SourceGraphic" in2="effect1_dropShadow_446_4713" result="shape"/>
</filter>
</defs>
</svg>
