<svg width="22" height="20" viewBox="0 0 22 20" fill="none" xmlns="http://www.w3.org/2000/svg">
<path opacity="0.7" d="M22 6.45986C22 13.7532 11.8063 19.6567 11.3722 19.9005C11.2578 19.9658 11.1299 20 11 20C10.8701 20 10.7422 19.9658 10.6278 19.9005C10.1937 19.6567 0 13.7532 0 6.45986C0.00181965 4.74719 0.643952 3.10522 1.78552 1.89418C2.92709 0.683141 4.47487 0.00193039 6.08929 0C8.11741 0 9.89312 0.925218 11 2.48913C12.1069 0.925218 13.8826 0 15.9107 0C17.5251 0.00193039 19.0729 0.683141 20.2145 1.89418C21.356 3.10522 21.9982 4.74719 22 6.45986Z" fill="#FF0A0A"/>
</svg>
