<svg width="20" height="16" viewBox="0 0 20 16" fill="none" xmlns="http://www.w3.org/2000/svg">
<path d="M19.375 9.84643C19.2092 9.84643 19.0503 9.91127 18.933 10.0267C18.8158 10.1421 18.75 10.2986 18.75 10.4618V11.6927H15.2586L13.8281 10.2818L17.7609 6.40858C17.9952 6.17778 18.1267 5.86483 18.1267 5.53854C18.1267 5.21224 17.9952 4.8993 17.7609 4.6685L14.8171 1.76913L13.3835 0.3606C13.2675 0.246278 13.1296 0.15559 12.978 0.093718C12.8263 0.0318456 12.6637 0 12.4995 0C12.3354 0 12.1728 0.0318456 12.0211 0.093718C11.8694 0.15559 11.7316 0.246278 11.6156 0.3606L0.227962 11.6111C0.118956 11.7188 0.044794 11.8559 0.0148418 12.005C-0.0151105 12.1541 0.000489596 12.3087 0.0596723 12.4491C0.118855 12.5895 0.218966 12.7095 0.347365 12.794C0.475763 12.8784 0.626692 12.9235 0.781091 12.9235H3.8569L6.6163 15.6398C6.8507 15.8704 7.16852 16 7.4999 16C7.83128 16 8.1491 15.8704 8.3835 15.6398L12.9421 11.1542L14.375 12.5627C14.4906 12.6775 14.6283 12.7685 14.78 12.8305C14.9317 12.8924 15.0943 12.924 15.2586 12.9235H18.75V14.1543C18.75 14.3175 18.8158 14.4741 18.933 14.5895C19.0503 14.7049 19.2092 14.7697 19.375 14.7697C19.5408 14.7697 19.6997 14.7049 19.8169 14.5895C19.9342 14.4741 20 14.3175 20 14.1543V10.4618C20 10.2986 19.9342 10.1421 19.8169 10.0267C19.6997 9.91127 19.5408 9.84643 19.375 9.84643ZM12.4999 1.23064L13.4914 2.20684L3.8569 11.6927H1.91079L12.4999 1.23064Z" fill="#95CA5B"/>
</svg>
