<svg width="202" height="142" viewBox="0 0 202 142" fill="none" xmlns="http://www.w3.org/2000/svg">
<g clip-path="url(#clip0_253_4231)">
<path d="M139.211 57.9159H149.276C148.991 59.2517 148.576 60.547 148.031 61.8018C146.882 64.4496 145.315 66.773 143.333 68.7696C141.349 70.7686 139.026 72.3382 136.363 73.4784C133.702 74.6211 130.857 75.1912 127.829 75.1912H116.789V33.3984C116.789 32.1962 116.88 31.0201 117.065 29.8728C117.094 29.6891 117.125 29.5078 117.159 29.3289C117.444 27.807 117.895 26.3328 118.512 24.9134C119.659 22.2656 121.223 19.9565 123.207 17.9838C125.192 16.011 127.514 14.4557 130.178 13.3131C132.838 12.1728 135.684 11.6003 138.712 11.6003H149.752V28.878H139.211V57.9159Z" fill="#95CA5B"/>
<path d="M149.727 29.8608V53.3144C149.727 54.5501 149.629 55.7547 149.437 56.9283H140.176V29.8608H149.727Z" fill="#95CA5B"/>
<path d="M100.457 42.0575V31.9743C94.3671 32.2653 89.5179 37.27 89.5179 43.3958C89.5179 49.5216 94.3671 54.5262 100.457 54.8172V44.7364C99.9312 44.5169 99.5593 43.9993 99.5593 43.3958C99.5617 42.7922 99.9312 42.2746 100.457 42.0575ZM101.582 31.9743V42.0575C102.107 42.2746 102.479 42.7922 102.479 43.3958C102.479 43.9969 102.11 44.5169 101.582 44.734V54.8172C107.672 54.5238 112.521 49.5239 112.521 43.3958C112.521 37.2676 107.672 32.2677 101.582 31.9743ZM100.457 30.9033V12.4162C99.5953 12.6619 98.7507 12.96 97.9253 13.3131C95.262 14.4557 92.9394 16.0134 90.9576 17.9838C88.9733 19.9565 87.4065 22.2656 86.2596 24.9134C85.643 26.3328 85.1943 27.8046 84.9064 29.3289C84.8728 29.5078 84.8416 29.6891 84.8128 29.8704C84.628 31.0154 84.5369 32.1938 84.5369 33.3984V75.1912H95.5763C97.2583 75.1912 98.8875 75.0147 100.457 74.6616V55.8859C93.772 55.5949 88.4406 50.1131 88.4406 43.3934C88.4406 36.6784 93.772 31.1943 100.457 30.9033ZM100.457 42.0575V31.9743C94.3671 32.2653 89.5179 37.27 89.5179 43.3958C89.5179 49.5216 94.3671 54.5262 100.457 54.8172V44.7364C99.9312 44.5169 99.5593 43.9993 99.5593 43.3958C99.5617 42.7922 99.9312 42.2746 100.457 42.0575ZM101.582 31.9743V42.0575C102.107 42.2746 102.479 42.7922 102.479 43.3958C102.479 43.9969 102.11 44.5169 101.582 44.734V54.8172C107.672 54.5238 112.521 49.5239 112.521 43.3958C112.521 37.2676 107.672 32.2677 101.582 31.9743ZM106.462 11.6003C104.78 11.6003 103.154 11.7769 101.582 12.1299V30.9033C108.269 31.1967 113.598 36.676 113.598 43.3958C113.598 50.1131 108.269 55.5949 101.582 55.8883V74.3754C102.443 74.1321 103.288 73.8315 104.113 73.4784C106.777 72.3382 109.099 70.7686 111.081 68.7696C113.065 66.773 114.63 64.4496 115.779 61.8018C116.384 60.4063 116.83 58.9583 117.118 57.4627C117.156 57.2551 117.192 57.0452 117.226 56.8329C117.411 55.6879 117.502 54.5166 117.502 53.3144V11.6003H106.462ZM101.582 31.9743V42.0575C102.107 42.2746 102.479 42.7922 102.479 43.3958C102.479 43.9969 102.11 44.5169 101.582 44.734V54.8172C107.672 54.5238 112.521 49.5239 112.521 43.3958C112.521 37.2676 107.672 32.2677 101.582 31.9743ZM100.457 42.0575V31.9743C94.3671 32.2653 89.5179 37.27 89.5179 43.3958C89.5179 49.5216 94.3671 54.5262 100.457 54.8172V44.7364C99.9312 44.5169 99.5593 43.9993 99.5593 43.3958C99.5617 42.7922 99.9312 42.2746 100.457 42.0575ZM100.457 42.0575V31.9743C94.3671 32.2653 89.5179 37.27 89.5179 43.3958C89.5179 49.5216 94.3671 54.5262 100.457 54.8172V44.7364C99.9312 44.5169 99.5593 43.9993 99.5593 43.3958C99.5617 42.7922 99.9312 42.2746 100.457 42.0575Z" fill="#95CA5B"/>
<path d="M85.2229 11.598V53.3168C85.2229 54.5238 85.1293 55.6998 84.947 56.8472C84.9158 57.0548 84.8774 57.2599 84.839 57.465C84.5535 58.9607 84.1072 60.4087 83.5026 61.8041C82.3557 64.452 80.7913 66.7754 78.8142 68.772C76.8323 70.771 74.5145 72.3406 71.8561 73.4808C69.1976 74.6235 66.3567 75.1936 63.3359 75.1936H52.3132V57.9159H62.8392V28.8756H52.7739C53.0594 27.5112 53.4793 26.1896 54.0336 24.9111C55.1805 22.2632 56.7449 19.9541 58.7243 17.9814C60.7038 16.0086 63.024 14.4533 65.6825 13.3107C68.341 12.1705 71.1794 11.598 74.2026 11.598H85.2229Z" fill="#95CA5B"/>
<path d="M61.8195 29.9277V56.9976H52.3276V33.4629C52.3276 32.2559 52.4188 31.0775 52.6036 29.9277H61.8195Z" fill="#95CA5B"/>
<path d="M136.545 100.773C136.543 100.787 136.538 100.796 136.536 100.808C136.349 101.519 136.25 102.261 136.245 103.032L136.111 120.3L140.658 120.336C141.908 120.345 143.084 120.118 144.185 119.656C145.286 119.191 146.253 118.551 147.076 117.733C147.489 117.323 147.861 116.881 148.185 116.404C148.506 115.93 148.787 115.422 149.029 114.882C149.26 114.362 149.437 113.826 149.555 113.272L145.411 113.241L145.505 101.252L149.845 101.285L149.9 94.153L145.353 94.1172C144.103 94.1077 142.928 94.3343 141.826 94.7971C141.718 94.8424 141.606 94.8925 141.5 94.9426C141.404 94.9855 141.313 95.0309 141.222 95.0786C141.188 95.0953 141.155 95.112 141.123 95.1287C141.059 95.1621 140.994 95.1978 140.934 95.2312C140.927 95.2312 140.919 95.2336 140.915 95.2408C140.874 95.2599 140.835 95.2837 140.795 95.3099C140.792 95.3076 140.785 95.3099 140.78 95.3171C140.708 95.3577 140.639 95.4006 140.567 95.4435C140.483 95.4889 140.401 95.5437 140.32 95.5962C140.255 95.6391 140.188 95.6868 140.123 95.7298C140.08 95.7608 140.034 95.7894 139.993 95.8204C139.945 95.8538 139.902 95.8872 139.854 95.923C139.773 95.9803 139.693 96.0423 139.617 96.1067C139.566 96.1472 139.513 96.1854 139.468 96.2307C139.288 96.3762 139.11 96.5361 138.942 96.703C138.117 97.5093 137.464 98.4563 136.982 99.5417C136.802 99.9425 136.658 100.35 136.545 100.773Z" fill="#10242A"/>
<path d="M145.814 112.838L149.634 112.867C149.677 112.626 149.708 112.38 149.73 112.132C149.737 112.068 149.742 112.003 149.744 111.936C149.749 111.886 149.752 111.836 149.752 111.786C149.759 111.653 149.764 111.514 149.766 111.376L149.84 101.693L145.898 101.662L145.814 112.838Z" fill="#10242A"/>
<path d="M129.462 106.572L129.494 102.411C126.982 102.509 124.964 104.561 124.944 107.092C124.925 109.618 126.91 111.7 129.422 111.839L129.453 107.678C129.237 107.585 129.086 107.373 129.088 107.125C129.091 106.87 129.244 106.66 129.462 106.572Z" fill="#10242A"/>
<path d="M129.498 101.965L129.558 94.3367C129.51 94.3462 129.462 94.3605 129.419 94.3748C129.371 94.3844 129.323 94.4011 129.278 94.4178C129.206 94.4369 129.138 94.4607 129.071 94.4846C129.023 94.5013 128.98 94.518 128.932 94.5347C128.86 94.5609 128.793 94.5871 128.726 94.6134C128.654 94.6372 128.584 94.6659 128.512 94.6969C127.96 94.9306 127.444 95.2026 126.965 95.5222C126.727 95.6821 126.497 95.849 126.274 96.0279C126.048 96.2045 125.835 96.3977 125.626 96.6004C125.422 96.8008 125.223 97.0131 125.04 97.2302C124.968 97.3137 124.896 97.3996 124.832 97.4878C124.767 97.5713 124.702 97.6572 124.64 97.7455C124.575 97.8313 124.512 97.9196 124.455 98.0102C124.157 98.4539 123.896 98.9334 123.67 99.4391C123.486 99.8589 123.337 100.286 123.222 100.727C123.037 101.436 122.941 102.17 122.934 102.934L122.799 120.202L127.346 120.238C127.454 120.238 127.562 120.235 127.67 120.233C127.992 120.226 128.308 120.202 128.62 120.159C128.786 120.14 128.951 120.114 129.114 120.083C129.196 120.066 129.278 120.049 129.359 120.035L129.419 112.285C126.662 112.142 124.479 109.863 124.5 107.092C124.52 104.31 126.739 102.065 129.498 101.965Z" fill="#10242A"/>
<path d="M129.961 102.414L129.93 106.574C130.146 106.667 130.297 106.882 130.295 107.132C130.293 107.383 130.139 107.592 129.923 107.681L129.892 111.841C132.404 111.738 134.422 109.692 134.441 107.163C134.458 104.632 132.471 102.554 129.961 102.414Z" fill="#10242A"/>
<path d="M136.161 113.513C136.348 112.802 136.447 112.06 136.452 111.29L136.586 94.0528L132.039 94.017C131.675 94.0146 131.315 94.0313 130.967 94.0695C130.9 94.0766 130.832 94.0862 130.763 94.0957C130.53 94.1243 130.3 94.1625 130.072 94.2102C130.055 94.2126 130.038 94.2174 130.021 94.2222L129.961 101.97C132.718 102.113 134.902 104.391 134.88 107.168C134.858 109.94 132.639 112.184 129.88 112.285L129.82 119.913C129.853 119.906 129.885 119.897 129.918 119.887C130.036 119.854 130.151 119.818 130.266 119.78C130.381 119.739 130.496 119.701 130.609 119.658C130.693 119.625 130.782 119.591 130.866 119.555C131.967 119.09 132.934 118.451 133.757 117.633C134.141 117.253 134.487 116.841 134.794 116.4C134.834 116.347 134.873 116.29 134.909 116.233C134.957 116.166 135 116.097 135.046 116.025C135.072 115.982 135.101 115.934 135.127 115.889C135.137 115.875 135.149 115.863 135.154 115.846C135.211 115.753 135.266 115.658 135.319 115.562C135.377 115.462 135.432 115.357 135.485 115.255C135.509 115.207 135.533 115.161 135.554 115.114C135.595 115.033 135.636 114.949 135.672 114.866C135.686 114.839 135.698 114.813 135.71 114.782C135.725 114.751 135.734 114.725 135.749 114.694C135.763 114.67 135.77 114.646 135.78 114.62C135.806 114.563 135.833 114.505 135.852 114.446C135.883 114.355 135.921 114.265 135.953 114.174C136.025 113.969 136.087 113.761 136.147 113.551C136.157 113.537 136.159 113.525 136.161 113.513Z" fill="#10242A"/>
<path d="M109.483 120.097L114.032 120.133C115.28 120.142 116.455 119.916 117.557 119.453C117.833 119.338 118.097 119.212 118.353 119.074C118.548 118.971 118.737 118.861 118.92 118.744C119.102 118.628 119.28 118.506 119.457 118.379C119.805 118.127 120.131 117.843 120.441 117.537C121.266 116.719 121.919 115.767 122.401 114.68C122.463 114.546 122.519 114.408 122.569 114.267C122.571 114.257 122.576 114.248 122.579 114.236C122.679 113.978 122.761 113.716 122.835 113.449C122.843 113.432 122.845 113.413 122.85 113.396C122.871 113.313 122.891 113.229 122.912 113.141C122.929 113.058 122.948 112.969 122.965 112.886C122.982 112.798 122.996 112.714 123.011 112.631C123.025 112.542 123.039 112.459 123.049 112.373C123.056 112.323 123.063 112.273 123.071 112.225C123.078 112.149 123.09 112.075 123.092 112.001C123.102 111.929 123.106 111.855 123.111 111.781C123.118 111.715 123.123 111.643 123.126 111.574C123.13 111.443 123.135 111.309 123.135 111.173L123.27 93.9526L118.72 93.9169C117.473 93.9073 116.297 94.1339 115.198 94.5967C114.922 94.7112 114.656 94.8424 114.397 94.976C114.301 95.0285 114.202 95.0809 114.111 95.1358C113.449 95.5127 112.852 95.9707 112.309 96.5003V96.5027C111.897 96.9058 111.53 97.3471 111.201 97.8194C111.119 97.9363 111.04 98.0604 110.966 98.1844C110.846 98.3752 110.733 98.5732 110.627 98.776C110.582 98.8666 110.539 98.9525 110.493 99.0479C110.443 99.141 110.397 99.2411 110.351 99.3389C110.287 99.4892 110.224 99.6443 110.169 99.7969C110.114 99.9448 110.059 100.098 110.011 100.253C109.98 100.358 109.948 100.46 109.92 100.565C109.888 100.682 109.857 100.806 109.833 100.928C109.826 100.944 109.824 100.963 109.819 100.98L113.975 101.011L113.881 113L109.538 112.967L109.483 120.097Z" fill="#10242A"/>
<path d="M109.749 101.412C109.668 101.884 109.627 102.373 109.622 102.869L109.548 112.585L113.466 112.616L113.552 101.44L109.749 101.412Z" fill="#10242A"/>
<path d="M87.428 112.965V120.13L109.481 120.097L109.536 112.965H87.428Z" fill="#10242A"/>
<path d="M101.515 128.737C101.356 128.341 101.124 127.995 100.821 127.695C100.219 127.053 99.4345 126.731 98.4651 126.731C97.5414 126.731 96.7784 127.053 96.1761 127.695C95.8714 127.993 95.6363 128.341 95.4659 128.737C95.2932 129.133 95.2068 129.553 95.2068 130.004C95.2068 130.454 95.2956 130.874 95.4659 131.27C95.6339 131.666 95.8714 132.012 96.1761 132.313C96.7784 132.954 97.5414 133.276 98.4651 133.276C99.4345 133.276 100.219 132.954 100.821 132.313C101.121 132.015 101.356 131.666 101.515 131.27C101.678 130.874 101.757 130.454 101.757 130.004C101.757 129.553 101.678 129.135 101.515 128.737Z" fill="#10242A"/>
<path d="M87.4279 124.486C87.4279 125.705 87.2023 126.838 86.7513 127.888C86.3002 128.935 85.6643 129.865 84.8462 130.679C84.028 131.492 83.0874 132.127 82.0221 132.587C80.9568 133.047 79.8123 133.276 78.5862 133.276H74.133V120.25C72.3047 120.25 70.5891 119.901 68.9864 119.207C67.3836 118.513 65.968 117.566 64.7419 116.369C63.5158 115.171 62.5585 113.78 61.8699 112.196C61.1812 110.615 60.8381 108.893 60.8381 107.032C60.8381 105.214 61.1812 103.509 61.8699 101.915C62.5585 100.322 63.5158 98.9167 64.7419 97.6954C65.968 96.4764 67.3836 95.5246 68.9864 94.84C70.5891 94.1554 72.3047 93.8143 74.133 93.8143C75.9613 93.8143 77.6889 94.1578 79.3132 94.84C80.9376 95.5246 82.3508 96.4764 83.5577 97.6954C84.7622 98.9143 85.7099 100.322 86.3986 101.915C87.0872 103.509 87.4303 105.214 87.4303 107.032V124.486H87.4279ZM70.8747 107.034C70.8747 107.483 70.9611 107.905 71.1338 108.301C71.3066 108.697 71.5417 109.045 71.844 109.343C72.4463 109.985 73.2093 110.307 74.1354 110.307C75.04 110.307 75.8126 109.985 76.458 109.343C77.1034 108.702 77.4249 107.931 77.4249 107.034C77.4249 106.094 77.1034 105.324 76.458 104.725C76.1557 104.427 75.8078 104.196 75.4095 104.036C75.0112 103.876 74.5865 103.795 74.1354 103.795C73.2309 103.795 72.4678 104.105 71.844 104.725C71.5417 105.026 71.3066 105.372 71.1338 105.768C70.9587 106.161 70.8747 106.583 70.8747 107.034Z" fill="#10242A"/>
<path d="M44.3137 133.31V109.119C44.3137 107.9 44.5441 106.76 45.0071 105.703C45.4702 104.644 46.0988 103.709 46.8954 102.896C47.692 102.082 48.6278 101.452 49.7027 101.002C50.7776 100.553 51.9293 100.329 53.1554 100.329H57.6086V124.52C57.6086 125.738 57.3831 126.872 56.932 127.921C56.4809 128.968 55.8451 129.899 55.0269 130.712C54.2087 131.526 53.2681 132.16 52.2028 132.62C51.1375 133.081 49.993 133.31 48.7669 133.31H44.3137Z" fill="#10242A"/>
</g>
<defs>
<clipPath id="clip0_253_4231">
<rect width="202" height="142" fill="white"/>
</clipPath>
</defs>
</svg>
