<svg width="20" height="16" viewBox="0 0 20 16" fill="none" xmlns="http://www.w3.org/2000/svg">
<path d="M0.625006 9.84643C0.790766 9.84643 0.949739 9.91127 1.06695 10.0267C1.18416 10.1421 1.25001 10.2986 1.25001 10.4618V11.6927H4.74145L6.17193 10.2818L2.23908 6.40858C2.00484 6.17778 1.87325 5.86483 1.87325 5.53854C1.87325 5.21224 2.00484 4.8993 2.23908 4.6685L5.18285 1.76913L6.61646 0.3606C6.73254 0.246278 6.87035 0.15559 7.02203 0.093718C7.17371 0.0318456 7.33628 0 7.50045 0C7.66463 0 7.8272 0.0318456 7.97888 0.093718C8.13055 0.15559 8.26837 0.246278 8.38445 0.3606L19.772 11.6111C19.881 11.7188 19.9552 11.8559 19.9852 12.005C20.0151 12.1541 19.9995 12.3087 19.9403 12.4491C19.8811 12.5895 19.781 12.7095 19.6526 12.794C19.5242 12.8784 19.3733 12.9235 19.2189 12.9235H16.1431L13.3837 15.6398C13.1493 15.8704 12.8315 16 12.5001 16C12.1687 16 11.8509 15.8704 11.6165 15.6398L7.05787 11.1542L5.62505 12.5627C5.50939 12.6775 5.37172 12.7685 5.22003 12.8305C5.06834 12.8924 4.90566 12.924 4.74145 12.9235H1.25001V14.1543C1.25001 14.3175 1.18416 14.4741 1.06695 14.5895C0.949739 14.7049 0.790766 14.7697 0.625006 14.7697C0.459244 14.7697 0.30027 14.7049 0.18306 14.5895C0.0658474 14.4741 0 14.3175 0 14.1543V10.4618C0 10.2986 0.0658474 10.1421 0.18306 10.0267C0.30027 9.91127 0.459244 9.84643 0.625006 9.84643ZM7.50006 1.23064L6.50865 2.20684L16.1431 11.6927H18.0892L7.50006 1.23064Z" fill="#95CA5B"/>
</svg>
