<svg width="14" height="14" viewBox="0 0 14 14" fill="none" xmlns="http://www.w3.org/2000/svg">
<path d="M13.9883 11.6678C13.9883 12.0082 13.901 12.3444 13.7323 12.6529C13.5637 12.9614 13.3178 13.2347 13.0121 13.4537C12.7063 13.6726 12.348 13.8318 11.9624 13.9201C11.5767 14.0084 11.173 14.0237 10.7797 13.9649C10.3864 13.9062 10.0129 13.7747 9.68556 13.5798C9.35819 13.3849 9.08485 13.1313 8.88473 12.8367C8.6846 12.5422 8.56255 12.2139 8.52715 11.8749C8.49174 11.5359 8.54383 11.1944 8.67977 10.8744L4.65183 8.66881C4.26714 8.99043 3.77957 9.20806 3.2503 9.2944C2.72104 9.38075 2.17364 9.33196 1.67678 9.15415C1.17993 8.97635 0.755739 8.67745 0.457436 8.29496C0.159133 7.91246 0 7.46341 0 7.00412C0 6.54484 0.159133 6.09578 0.457436 5.71329C0.755739 5.33079 1.17993 5.0319 1.67678 4.85409C2.17364 4.67629 2.72104 4.6275 3.2503 4.71384C3.77957 4.80019 4.26714 5.01782 4.65183 5.33944L8.67977 3.13713C8.44912 2.59694 8.46008 2.00326 8.71056 1.46953C8.96103 0.935801 9.43347 0.49944 10.0376 0.243829C10.6417 -0.0117827 11.3351 -0.0687212 11.9854 0.0838929C12.6356 0.236507 13.1971 0.587973 13.5625 1.07113C13.928 1.55429 14.0717 2.13527 13.9663 2.70305C13.8609 3.27082 13.5137 3.78559 12.9911 4.14899C12.4685 4.51239 11.8072 4.69894 11.1334 4.673C10.4596 4.64705 9.82069 4.41042 9.33868 4.00833L5.31074 6.21388C5.52843 6.7266 5.52843 7.28812 5.31074 7.80084L9.33868 10.0064C9.72325 9.68561 10.2103 9.4686 10.7388 9.38252C11.2673 9.29644 11.8139 9.3451 12.3102 9.52243C12.8064 9.69976 13.2303 9.99787 13.5288 10.3795C13.8273 10.7611 13.9871 11.2092 13.9883 11.6678Z" fill="#10242A"/>
</svg>
