<svg width="25" height="20" viewBox="0 0 25 20" fill="none" xmlns="http://www.w3.org/2000/svg">
<path d="M22.7857 0H2.21429C1.75963 0 1.32359 0.210714 1.0021 0.585786C0.680612 0.960859 0.5 1.46957 0.5 2V18C0.5 18.5304 0.680612 19.0391 1.0021 19.4142C1.32359 19.7893 1.75963 20 2.21429 20H22.7857C23.2404 20 23.6764 19.7893 23.9979 19.4142C24.3194 19.0391 24.5 18.5304 24.5 18V2C24.5 1.46957 24.3194 0.960859 23.9979 0.585786C23.6764 0.210714 23.2404 0 22.7857 0ZM22.7857 14H21.9286C21.0193 14 20.1472 13.5786 19.5042 12.8284C18.8612 12.0783 18.5 11.0609 18.5 10C18.5 8.93913 18.8612 7.92172 19.5042 7.17157C20.1472 6.42143 21.0193 6 21.9286 6H22.7857V14ZM2.21429 6H3.07143C3.98074 6 4.85281 6.42143 5.49579 7.17157C6.13878 7.92172 6.5 8.93913 6.5 10C6.5 11.0609 6.13878 12.0783 5.49579 12.8284C4.85281 13.5786 3.98074 14 3.07143 14H2.21429V6ZM2.21429 16H3.07143C4.4354 16 5.74351 15.3679 6.70798 14.2426C7.67245 13.1174 8.21429 11.5913 8.21429 10C8.21429 8.4087 7.67245 6.88258 6.70798 5.75736C5.74351 4.63214 4.4354 4 3.07143 4H2.21429V2H11.6429V18H2.21429V16ZM22.7857 18H13.3571V2H22.7857V4H21.9286C20.5646 4 19.2565 4.63214 18.292 5.75736C17.3275 6.88258 16.7857 8.4087 16.7857 10C16.7857 11.5913 17.3275 13.1174 18.292 14.2426C19.2565 15.3679 20.5646 16 21.9286 16H22.7857V18Z" fill="#A9B0B2"/>
</svg>
