<svg width="9" height="8" viewBox="0 0 9 8" fill="none" xmlns="http://www.w3.org/2000/svg">
<path d="M8.77315 3.66128L6.96406 5.09966L7.51523 7.25074C7.54564 7.36751 7.53781 7.48997 7.49272 7.60264C7.44764 7.71532 7.36733 7.81315 7.26193 7.88379C7.15653 7.95443 7.03078 7.9947 6.90056 7.99951C6.77033 8.00433 6.64148 7.97347 6.53028 7.91085L4.50008 6.75955L2.46868 7.91085C2.35749 7.97311 2.22879 8.00367 2.09879 7.99868C1.96879 7.99369 1.84331 7.95336 1.73813 7.88279C1.63295 7.81221 1.55279 7.71454 1.50773 7.60207C1.46268 7.4896 1.45474 7.36736 1.48493 7.25074L2.03811 5.09966L0.229026 3.66128C0.130651 3.58293 0.059504 3.47962 0.024471 3.36425C-0.010562 3.24887 -0.00792865 3.12654 0.0320421 3.01253C0.0720128 2.89852 0.147549 2.79789 0.249219 2.72321C0.350888 2.64852 0.474183 2.60309 0.603708 2.59259L2.97562 2.41626L3.89062 0.375935C3.94015 0.264738 4.02444 0.169623 4.13278 0.102683C4.24113 0.0357423 4.36863 0 4.49908 0C4.62952 0 4.75702 0.0357423 4.86537 0.102683C4.97371 0.169623 5.05801 0.264738 5.10753 0.375935L6.02213 2.41626L8.39404 2.59259C8.52382 2.6027 8.64748 2.64788 8.74952 2.72246C8.85156 2.79704 8.92744 2.89771 8.96766 3.01186C9.00788 3.126 9.01065 3.24855 8.97562 3.36414C8.94059 3.47972 8.86932 3.58322 8.77073 3.66165L8.77315 3.66128Z" fill="#FFBF00"/>
</svg>
