<svg width="18" height="18" viewBox="0 0 18 18" fill="none" xmlns="http://www.w3.org/2000/svg">
<path d="M9 0C7.21997 0 5.47991 0.527841 3.99987 1.51677C2.51983 2.50571 1.36628 3.91131 0.685088 5.55585C0.00389956 7.20038 -0.17433 9.00998 0.172936 10.7558C0.520203 12.5016 1.37737 14.1053 2.63604 15.364C3.89471 16.6226 5.49836 17.4798 7.24419 17.8271C8.99002 18.1743 10.7996 17.9961 12.4442 17.3149C14.0887 16.6337 15.4943 15.4802 16.4832 14.0001C17.4722 12.5201 18 10.78 18 9C17.9975 6.61382 17.0485 4.3261 15.3612 2.63882C13.6739 0.95154 11.3862 0.00251984 9 0ZM4.33385 15.0144C4.83468 14.2311 5.52462 13.5865 6.34009 13.14C7.15555 12.6935 8.0703 12.4595 9 12.4595C9.9297 12.4595 10.8444 12.6935 11.6599 13.14C12.4754 13.5865 13.1653 14.2311 13.6662 15.0144C12.332 16.052 10.6901 16.6153 9 16.6153C7.30989 16.6153 5.66798 16.052 4.33385 15.0144ZM6.23077 8.30769C6.23077 7.75999 6.39318 7.22459 6.69747 6.76919C7.00176 6.31379 7.43425 5.95885 7.94026 5.74926C8.44627 5.53966 9.00307 5.48482 9.54025 5.59167C10.0774 5.69852 10.5709 5.96227 10.9581 6.34955C11.3454 6.73683 11.6092 7.23026 11.716 7.76744C11.8229 8.30462 11.768 8.86142 11.5584 9.36743C11.3488 9.87344 10.9939 10.3059 10.5385 10.6102C10.0831 10.9145 9.5477 11.0769 9 11.0769C8.26556 11.0769 7.56119 10.7852 7.04186 10.2658C6.52253 9.7465 6.23077 9.04214 6.23077 8.30769ZM14.6908 14.0547C13.9186 12.9358 12.8329 12.0702 11.5702 11.5667C12.2485 11.0325 12.7435 10.3001 12.9862 9.47154C13.229 8.64295 13.2076 7.75929 12.9249 6.94345C12.6422 6.12761 12.1123 5.42015 11.4088 4.91944C10.7054 4.41873 9.86343 4.14967 9 4.14967C8.13657 4.14967 7.2946 4.41873 6.59117 4.91944C5.88775 5.42015 5.35783 6.12761 5.07513 6.94345C4.79242 7.75929 4.77097 8.64295 5.01376 9.47154C5.25655 10.3001 5.75151 11.0325 6.42981 11.5667C5.16706 12.0702 4.08136 12.9358 3.30923 14.0547C2.33357 12.9575 1.69587 11.6017 1.47293 10.1505C1.24998 8.69933 1.45129 7.21462 2.05262 5.87518C2.65395 4.53574 3.62966 3.39869 4.86226 2.60094C6.09485 1.8032 7.53178 1.37877 9 1.37877C10.4682 1.37877 11.9052 1.8032 13.1377 2.60094C14.3703 3.39869 15.346 4.53574 15.9474 5.87518C16.5487 7.21462 16.75 8.69933 16.5271 10.1505C16.3041 11.6017 15.6664 12.9575 14.6908 14.0547Z" fill="#10242A"/>
</svg>
