<svg width="83" height="86" viewBox="0 0 83 86" fill="none" xmlns="http://www.w3.org/2000/svg">
<path d="M44.7672 57.2241C44.7672 60.3678 43.8329 63.441 42.0826 66.0549C40.3323 68.6689 37.8444 70.7062 34.9337 71.9092C32.023 73.1123 28.8202 73.4271 25.7302 72.8138C22.6402 72.2004 19.8019 70.6866 17.5741 68.4636C15.3464 66.2406 13.8293 63.4084 13.2146 60.3251C12.6 57.2417 12.9154 54.0457 14.1211 51.1413C15.3268 48.2369 17.3685 45.7544 19.988 44.0078C22.6076 42.2612 25.6873 41.329 28.8379 41.329C33.0626 41.329 37.1143 43.0037 40.1016 45.9846C43.0889 48.9655 44.7672 53.0084 44.7672 57.2241ZM74.3718 42.2589L55.2566 61.333C54.6588 61.9295 54.323 62.7385 54.323 63.5821C54.323 64.4257 54.6588 65.2348 55.2566 65.8313C55.8544 66.4278 56.6652 66.7629 57.5106 66.7629C58.356 66.7629 59.1668 66.4278 59.7646 65.8313L78.8798 46.7572C79.1758 46.4618 79.4106 46.1112 79.5708 45.7252C79.7309 45.3393 79.8134 44.9257 79.8134 44.508C79.8134 44.0903 79.7309 43.6767 79.5708 43.2908C79.4106 42.9049 79.1758 42.5542 78.8798 42.2589C78.5838 41.9635 78.2324 41.7292 77.8456 41.5694C77.4589 41.4095 77.0444 41.3272 76.6258 41.3272C76.2072 41.3272 75.7927 41.4095 75.4059 41.5694C75.0192 41.7292 74.6678 41.9635 74.3718 42.2589ZM66.1363 37.2201C66.4323 36.9248 66.6671 36.5741 66.8273 36.1882C66.9875 35.8023 67.07 35.3887 67.07 34.971C67.07 34.5533 66.9875 34.1396 66.8273 33.7537C66.6671 33.3678 66.4323 33.0172 66.1363 32.7218C65.8403 32.4264 65.4889 32.1921 65.1022 32.0323C64.7154 31.8724 64.3009 31.7902 63.8823 31.7902C63.4637 31.7902 63.0492 31.8724 62.6625 32.0323C62.2757 32.1921 61.9243 32.4264 61.6283 32.7218L52.0707 42.2589C51.4729 42.8554 51.1371 43.6644 51.1371 44.508C51.1371 45.3516 51.4729 46.1607 52.0707 46.7572C52.6685 47.3537 53.4793 47.6888 54.3247 47.6888C55.1702 47.6888 55.9809 47.3537 56.5787 46.7572L66.1363 37.2201ZM82.0656 16.8267C81.7698 16.5311 81.4184 16.2967 81.0316 16.1367C80.6449 15.9767 80.2303 15.8944 79.8116 15.8944C79.393 15.8944 78.9784 15.9767 78.5916 16.1367C78.2049 16.2967 77.8535 16.5311 77.5576 16.8267L71.1859 23.1848C70.5881 23.7813 70.2523 24.5903 70.2523 25.4339C70.2523 26.2775 70.5881 27.0866 71.1859 27.6831C71.7837 28.2796 72.5945 28.6147 73.4399 28.6147C74.2853 28.6147 75.0961 28.2796 75.6939 27.6831L82.0656 21.325C82.3618 21.0298 82.5968 20.6792 82.7572 20.2932C82.9175 19.9073 83 19.4936 83 19.0759C83 18.6581 82.9175 18.2444 82.7572 17.8585C82.5968 17.4726 82.3618 17.122 82.0656 16.8267ZM39.3273 34.0411C39.6232 34.3367 39.9745 34.5712 40.3613 34.7311C40.7481 34.8911 41.1626 34.9735 41.5813 34.9735C42 34.9735 42.4145 34.8911 42.8013 34.7311C43.1881 34.5712 43.5394 34.3367 43.8353 34.0411L72.508 5.42994C72.804 5.13458 73.0388 4.78393 73.199 4.39802C73.3592 4.01211 73.4417 3.59849 73.4417 3.18079C73.4417 2.76308 73.3592 2.34946 73.199 1.96355C73.0388 1.57764 72.804 1.22699 72.508 0.931631C72.2121 0.636267 71.8606 0.401972 71.4739 0.242123C71.0872 0.0822731 70.6727 -8.80251e-09 70.2541 0C69.8354 8.80251e-09 69.4209 0.0822731 69.0342 0.242123C68.6475 0.401972 68.2961 0.636267 68.0001 0.931631L39.3273 29.5428C39.0311 29.838 38.7961 30.1886 38.6358 30.5746C38.4755 30.9605 38.3929 31.3742 38.3929 31.7919C38.3929 32.2097 38.4755 32.6234 38.6358 33.0093C38.7961 33.3952 39.0311 33.7459 39.3273 34.0411ZM44.6079 72.9602C40.4254 77.1337 34.7528 79.4783 28.8379 79.4783C22.923 79.4783 17.2503 77.1337 13.0678 72.9602C8.88538 68.7867 6.53569 63.1263 6.53569 57.2241C6.53569 51.3219 8.88538 45.6614 13.0678 41.4879L46.0216 8.60896C46.3176 8.31359 46.5524 7.96295 46.7126 7.57704C46.8728 7.19113 46.9552 6.77751 46.9552 6.3598C46.9552 5.9421 46.8728 5.52848 46.7126 5.14257C46.5524 4.75666 46.3176 4.40601 46.0216 4.11065C45.7256 3.81528 45.3742 3.58099 44.9875 3.42114C44.6007 3.26129 44.1862 3.17902 43.7676 3.17902C43.349 3.17902 42.9345 3.26129 42.5477 3.42114C42.161 3.58099 41.8096 3.81528 41.5136 4.11065L8.56384 36.9936C5.86572 39.6424 3.71989 42.7981 2.2501 46.2786C0.780305 49.7591 0.0156498 53.4955 0.000237721 57.2723C-0.0151743 61.0492 0.718961 64.7917 2.1603 68.284C3.60164 71.7763 5.72165 74.9493 8.39805 77.62C11.0745 80.2906 14.2543 82.4061 17.7541 83.8443C21.254 85.2826 25.0045 86.0151 28.7895 85.9998C32.5745 85.9844 36.3189 85.2214 39.8069 83.7547C43.2949 82.2881 46.4574 80.1469 49.1119 77.4546C49.6841 76.8535 49.9984 76.0532 49.9878 75.2242C49.9772 74.3953 49.6424 73.6032 49.0549 73.017C48.4675 72.4308 47.6737 72.0968 46.843 72.0862C46.0122 72.0756 45.2102 72.3892 44.6079 72.9602Z" fill="#95CA5B"/>
</svg>
