<svg width="18" height="18" viewBox="0 0 18 18" fill="none" xmlns="http://www.w3.org/2000/svg">
<path d="M17.5416 8.28098L17.1349 8.62501C17.0057 8.7341 16.8375 8.78846 16.6674 8.77613C16.4973 8.76381 16.3391 8.6858 16.2277 8.55927C16.1164 8.43275 16.0608 8.26807 16.0734 8.10146C16.086 7.93485 16.1657 7.77996 16.2949 7.67087L16.7016 7.32685C16.7112 7.31897 16.7201 7.31189 16.712 7.28749C16.704 7.26308 16.6976 7.26623 16.6847 7.26466L16.02 7.21191C15.9339 7.20775 15.8496 7.1867 15.772 7.15001C15.6945 7.11332 15.6252 7.06173 15.5684 6.99832C15.5115 6.93491 15.4683 6.86097 15.4412 6.78087C15.4141 6.70078 15.4038 6.61618 15.4107 6.53208C15.4177 6.44799 15.4418 6.36612 15.4817 6.29133C15.5216 6.21655 15.5764 6.15037 15.6429 6.09674C15.7094 6.0431 15.7862 6.0031 15.8688 5.9791C15.9514 5.9551 16.038 5.94761 16.1236 5.95705L16.7884 6.00901C17.0479 6.0305 17.2951 6.12651 17.4992 6.28502C17.7032 6.44352 17.8549 6.65747 17.9353 6.90005C18.0158 7.14263 18.0213 7.40306 17.9512 7.64871C17.8812 7.89436 17.7387 8.1143 17.5416 8.28098ZM12.5812 11.256L12.9092 12.6116C12.9424 12.7496 13.0223 12.8725 13.1358 12.9605C13.2493 13.0485 13.3898 13.0964 13.5345 13.0965C13.5846 13.0966 13.6345 13.0907 13.6832 13.0792C13.7654 13.0602 13.843 13.0254 13.9114 12.977C13.9799 12.9286 14.038 12.8674 14.0823 12.797C14.1266 12.7266 14.1564 12.6484 14.1698 12.5667C14.1833 12.485 14.1802 12.4016 14.1607 12.3211L13.9196 11.3378L14.5626 10.7978C14.6918 10.6887 14.7715 10.5338 14.784 10.3672C14.7966 10.2006 14.7411 10.0359 14.6297 9.90939C14.5746 9.84674 14.5074 9.79535 14.4319 9.75814C14.3565 9.72093 14.2743 9.69864 14.1901 9.69253C14.02 9.6802 13.8518 9.73456 13.7226 9.84366L12.787 10.6309C12.6973 10.7065 12.6306 10.8048 12.5943 10.9151C12.558 11.0254 12.5535 11.1433 12.5812 11.256ZM14.9227 15.4701C14.8834 15.3075 14.7797 15.1669 14.6346 15.0793C14.4894 14.9916 14.3146 14.9639 14.1487 15.0024C13.9827 15.041 13.8391 15.1425 13.7496 15.2847C13.6601 15.4268 13.6318 15.598 13.6712 15.7606L13.7773 16.1998C13.7804 16.2067 13.7807 16.2144 13.7781 16.2214C13.7756 16.2284 13.7704 16.2342 13.7636 16.2376C13.7492 16.2487 13.7451 16.2463 13.7331 16.2376L13.1929 15.9125C13.0476 15.825 12.8728 15.7976 12.7069 15.8364C12.541 15.8752 12.3976 15.9769 12.3083 16.1192C12.219 16.2614 12.191 16.4327 12.2306 16.5951C12.2702 16.7576 12.374 16.898 12.5193 16.9855L13.0595 17.3106C13.2817 17.4428 13.5388 17.5076 13.7985 17.497C14.0582 17.4865 14.3089 17.4009 14.5192 17.2511C14.7294 17.1014 14.8897 16.8941 14.9799 16.6554C15.0702 16.4166 15.0864 16.1571 15.0264 15.9094L14.9227 15.4701ZM12.8047 6.95842L11.5475 6.85844C11.4298 6.84868 11.3172 6.80737 11.2219 6.73905C11.1266 6.67073 11.0524 6.57803 11.0073 6.47112L9.64081 3.23713V13.7744L10.238 14.1341C10.31 14.1774 10.3725 14.2342 10.422 14.3012C10.4716 14.3682 10.5072 14.4441 10.5268 14.5245C10.5464 14.605 10.5496 14.6884 10.5362 14.7701C10.5229 14.8517 10.4933 14.93 10.4491 15.0005C10.4048 15.0709 10.3469 15.1322 10.2785 15.1807C10.2101 15.2292 10.1326 15.264 10.0504 15.2832C9.96831 15.3024 9.88311 15.3056 9.79972 15.2925C9.71633 15.2795 9.63638 15.2504 9.56445 15.2071L8.99775 14.8655L4.93603 17.3122C4.71371 17.4445 4.45639 17.5095 4.19646 17.4989C3.93653 17.4883 3.68562 17.4026 3.47532 17.2526C3.26502 17.1026 3.10474 16.895 3.01465 16.656C2.92457 16.417 2.90871 16.1572 2.96907 15.9094L4.07513 11.3378L0.457929 8.28098C0.261231 8.11449 0.118976 7.89493 0.0489289 7.64973C-0.0211183 7.40453 -0.0158531 7.14455 0.0640669 6.90226C0.143987 6.65997 0.29502 6.44612 0.498304 6.28739C0.701587 6.12867 0.948113 6.03212 1.20709 6.00979L5.94965 5.63507L7.77915 1.29894C7.87818 1.06262 8.04672 0.860485 8.26335 0.718223C8.47998 0.57596 8.73492 0.5 8.99574 0.5C9.25656 0.5 9.5115 0.57596 9.72813 0.718223C9.94476 0.860485 10.1133 1.06262 10.2123 1.29894L12.041 5.63507L12.9059 5.70356C12.9904 5.71022 13.0727 5.73312 13.1481 5.77093C13.2235 5.80874 13.2906 5.86073 13.3455 5.92392C13.4004 5.98712 13.442 6.06029 13.468 6.13925C13.4941 6.21821 13.504 6.30142 13.4972 6.38413C13.4903 6.46683 13.467 6.54741 13.4284 6.62127C13.3898 6.69513 13.3367 6.76082 13.2721 6.81458C13.2076 6.86835 13.1329 6.90914 13.0523 6.93463C12.9717 6.96012 12.8867 6.96981 12.8022 6.96314L12.8047 6.95842ZM8.35469 13.7744V3.23713L6.98819 6.47112C6.94296 6.57836 6.86836 6.67129 6.77261 6.73963C6.67687 6.80798 6.5637 6.8491 6.44561 6.85844L1.30757 7.26466C1.29551 7.26466 1.28828 7.26466 1.28104 7.28749C1.27735 7.29425 1.27638 7.30212 1.27831 7.30955C1.28024 7.31698 1.28495 7.32343 1.29149 7.32763L5.20611 10.634C5.29539 10.7094 5.36179 10.8073 5.39809 10.9172C5.43438 11.027 5.43915 11.1445 5.41189 11.2568L4.2158 16.2006C4.21271 16.2074 4.2124 16.2152 4.21494 16.2222C4.21748 16.2292 4.22268 16.235 4.22947 16.2384C4.24394 16.2494 4.24796 16.2471 4.26001 16.2384L8.35469 13.7744Z" fill="#10242A"/>
</svg>
