<svg width="18" height="20" viewBox="0 0 18 20" fill="none" xmlns="http://www.w3.org/2000/svg">
<path d="M17.7945 11.8813C17.7039 11.7855 17.5903 11.7175 17.466 11.6847C17.3416 11.6519 17.2111 11.6554 17.0885 11.695C15.7423 12.1246 14.3109 12.1607 12.9469 11.7992C11.5828 11.4377 10.3372 10.6924 9.34275 9.64244C8.34831 8.59254 7.64229 7.27745 7.29993 5.83733C6.95756 4.3972 6.99169 2.88599 7.39866 1.46472C7.43643 1.33522 7.44005 1.19729 7.40912 1.06577C7.37819 0.934259 7.31389 0.814133 7.22314 0.718315C7.13238 0.622497 7.0186 0.554612 6.89404 0.521961C6.76947 0.48931 6.63883 0.493129 6.51616 0.533006C4.655 1.13494 3.02107 2.34127 1.84688 3.98036C0.820014 5.41972 0.193655 7.13289 0.038168 8.92737C-0.117319 10.7219 0.204227 12.5266 0.966681 14.1388C1.72913 15.7509 2.90229 17.1067 4.35434 18.0538C5.80639 19.0008 7.47981 19.5016 9.18659 19.5C11.1778 19.5064 13.116 18.823 14.704 17.5545C16.2565 16.3148 17.3991 14.5898 17.9692 12.6248C18.0065 12.4958 18.01 12.3585 17.9792 12.2276C17.9484 12.0966 17.8846 11.9769 17.7945 11.8813ZM13.855 16.3638C12.3596 17.5529 10.5078 18.1317 8.64029 17.9937C6.7728 17.8556 5.01539 17.01 3.69159 15.6125C2.36779 14.2149 1.5667 12.3596 1.43578 10.3879C1.30487 8.41631 1.85294 6.46111 2.97912 4.88226C3.71283 3.85929 4.66139 3.03005 5.75015 2.4598C5.68813 2.91934 5.65687 3.38293 5.65661 3.84712C5.65918 6.4162 6.62697 8.87927 8.34761 10.6959C10.0683 12.5125 12.4012 13.5343 14.8346 13.537C15.2751 13.5368 15.7151 13.5038 16.1513 13.4382C15.6106 14.5879 14.8246 15.5894 13.855 16.3638Z" fill="#10242A"/>
</svg>
