<svg width="18" height="16" viewBox="0 0 18 16" fill="none" xmlns="http://www.w3.org/2000/svg">
<path d="M16.56 2.90909H2.16C1.96904 2.90909 1.78591 2.83247 1.65088 2.69608C1.51586 2.55969 1.44 2.3747 1.44 2.18182C1.44 1.98893 1.51586 1.80395 1.65088 1.66756C1.78591 1.53117 1.96904 1.45455 2.16 1.45455H14.4C14.591 1.45455 14.7741 1.37792 14.9091 1.24153C15.0441 1.10514 15.12 0.920157 15.12 0.727273C15.12 0.534388 15.0441 0.349404 14.9091 0.213013C14.7741 0.0766233 14.591 0 14.4 0H2.16C1.58713 0 1.03773 0.22987 0.632649 0.63904C0.227571 1.04821 0 1.60316 0 2.18182V13.8182C0 14.3968 0.227571 14.9518 0.632649 15.361C1.03773 15.7701 1.58713 16 2.16 16H16.56C16.9419 16 17.3082 15.8468 17.5782 15.574C17.8483 15.3012 18 14.9312 18 14.5455V4.36364C18 3.97787 17.8483 3.6079 17.5782 3.33512C17.3082 3.06234 16.9419 2.90909 16.56 2.90909ZM16.56 14.5455H2.16C1.96904 14.5455 1.78591 14.4688 1.65088 14.3324C1.51586 14.1961 1.44 14.0111 1.44 13.8182V4.23909C1.67119 4.32187 1.91472 4.364 2.16 4.36364H16.56V14.5455ZM12.24 9.09091C12.24 8.87515 12.3033 8.66423 12.422 8.48483C12.5407 8.30543 12.7094 8.16561 12.9067 8.08304C13.104 8.00047 13.3212 7.97887 13.5307 8.02096C13.7402 8.06306 13.9326 8.16695 14.0837 8.31952C14.2347 8.47209 14.3376 8.66647 14.3792 8.87808C14.4209 9.0897 14.3995 9.30904 14.3178 9.50838C14.236 9.70772 14.0976 9.8781 13.92 9.99797C13.7424 10.1178 13.5336 10.1818 13.32 10.1818C13.0336 10.1818 12.7589 10.0669 12.5563 9.8623C12.3538 9.65771 12.24 9.38024 12.24 9.09091Z" fill="#10242A"/>
</svg>
