<svg width="80" height="68" viewBox="0 0 80 68" fill="none" xmlns="http://www.w3.org/2000/svg">
<path d="M58.53 61.2932C58.7537 61.9674 58.7016 62.7034 58.3853 63.3391C58.069 63.9748 57.5143 64.4582 56.8433 64.683C56.1723 64.9077 55.44 64.8554 54.8074 64.5376C54.1747 64.2197 53.6937 63.6623 53.47 62.9881L50.8033 54.949C50.6926 54.6151 50.6484 54.2626 50.6732 53.9116C50.698 53.5605 50.7914 53.2178 50.948 52.9031C51.1047 52.5883 51.3214 52.3076 51.586 52.077C51.8506 51.8464 52.1578 51.6705 52.49 51.5592C52.8222 51.4479 53.173 51.4035 53.5224 51.4284C53.8717 51.4533 54.2127 51.5472 54.526 51.7046C54.8392 51.862 55.1186 52.0798 55.348 52.3457C55.5775 52.6115 55.7526 52.9202 55.8633 53.2541L58.53 61.2932ZM40 51.4218C39.2928 51.4218 38.6145 51.7042 38.1144 52.2067C37.6143 52.7092 37.3333 53.3908 37.3333 54.1015V64.8203C37.3333 65.531 37.6143 66.2126 38.1144 66.7151C38.6145 67.2177 39.2928 67.5 40 67.5C40.7072 67.5 41.3855 67.2177 41.8856 66.7151C42.3857 66.2126 42.6667 65.531 42.6667 64.8203V54.1015C42.6667 53.3908 42.3857 52.7092 41.8856 52.2067C41.3855 51.7042 40.7072 51.4218 40 51.4218ZM27.51 51.5592C27.1778 51.4479 26.8269 51.4034 26.4776 51.4283C26.1283 51.4533 25.7872 51.5471 25.474 51.7045C25.1607 51.8619 24.8814 52.0798 24.6519 52.3456C24.4225 52.6115 24.2474 52.9202 24.1367 53.2541L21.47 61.2932C21.2463 61.9674 21.2984 62.7034 21.6147 63.3391C21.931 63.9748 22.4857 64.4582 23.1567 64.683C23.8277 64.9077 24.56 64.8554 25.1927 64.5376C25.8253 64.2197 26.3063 63.6623 26.53 62.9881L29.1967 54.949C29.3074 54.6151 29.3517 54.2626 29.3269 53.9116C29.3021 53.5605 29.2087 53.2178 29.052 52.903C28.8954 52.5882 28.6786 52.3075 28.414 52.077C28.1495 51.8464 27.8423 51.6704 27.51 51.5592ZM80 27.3046C80 32.7377 75.5433 37.6516 67.45 41.1352C60.0733 44.314 50.3333 46.0625 40 46.0625C29.6667 46.0625 19.9267 44.314 12.55 41.1352C4.45667 37.6516 0 32.7377 0 27.3046C0 24.501 1.22333 20.3408 7.05667 16.4184C10.8467 13.8693 16.0367 11.8093 22.1167 10.4393C23.8122 7.73985 26.0893 5.45751 28.78 3.76076C31.4707 2.06401 34.5063 0.996174 37.6627 0.636073C40.819 0.275973 44.0156 0.632805 47.0163 1.68023C50.0171 2.72765 52.7455 4.43893 55 6.68772C56.15 7.83122 57.1686 9.10086 58.0367 10.4728C71.81 13.6013 80 19.8484 80 27.3046ZM56 21.9452C56.0053 19.2072 55.3097 16.5138 53.98 14.1239L53.96 14.0937C52.5515 11.5689 50.4917 9.47235 47.9975 8.02463C45.5033 6.57691 42.6668 5.83157 39.7867 5.86706C31.0833 5.98095 24 13.32 24 22.2232V23.2281C23.9966 23.8301 24.197 24.4153 24.5683 24.8876C24.9397 25.36 25.4598 25.6914 26.0433 25.8274C30.6259 26.8427 35.3074 27.3382 40 27.3046C44.6898 27.3425 49.3691 26.8515 53.95 25.8408C54.5345 25.7055 55.0558 25.3745 55.4283 24.9022C55.8008 24.4298 56.0024 23.8442 56 23.2415V21.9452Z" fill="#95CA5B"/>
</svg>
