<svg width="28" height="24" viewBox="0 0 28 24" fill="none" xmlns="http://www.w3.org/2000/svg">
<path d="M27.7074 8.29266C27.8003 8.38557 27.874 8.49588 27.9243 8.61727C27.9746 8.73866 28.0005 8.86877 28.0005 9.00016C28.0005 9.13156 27.9746 9.26167 27.9243 9.38306C27.874 9.50445 27.8003 9.61476 27.7074 9.70767C27.6145 9.80058 27.5042 9.87428 27.3828 9.92456C27.2614 9.97484 27.1313 10.0007 26.9999 10.0007C26.8685 10.0007 26.7384 9.97484 26.617 9.92456C26.4956 9.87428 26.3853 9.80058 26.2924 9.70767L23.9999 7.41391L21.7074 9.70767C21.5198 9.89531 21.2653 10.0007 20.9999 10.0007C20.7345 10.0007 20.48 9.89531 20.2924 9.70767C20.1048 9.52002 19.9993 9.26553 19.9993 9.00016C19.9993 8.7348 20.1048 8.48031 20.2924 8.29266L22.5861 6.00016L20.2924 3.70767C20.1995 3.61475 20.1258 3.50445 20.0755 3.38306C20.0252 3.26167 19.9993 3.13156 19.9993 3.00017C19.9993 2.86877 20.0252 2.73866 20.0755 2.61727C20.1258 2.49588 20.1995 2.38558 20.2924 2.29267C20.48 2.10502 20.7345 1.99961 20.9999 1.99961C21.1313 1.99961 21.2614 2.02549 21.3828 2.07577C21.5042 2.12605 21.6145 2.19976 21.7074 2.29267L23.9999 4.58642L26.2924 2.29267C26.3853 2.19976 26.4956 2.12605 26.617 2.07577C26.7384 2.02549 26.8685 1.99961 26.9999 1.99961C27.1313 1.99961 27.2614 2.02549 27.3828 2.07577C27.5042 2.12605 27.6145 2.19976 27.7074 2.29267C27.8003 2.38558 27.874 2.49588 27.9243 2.61727C27.9746 2.73866 28.0005 2.86877 28.0005 3.00017C28.0005 3.13156 27.9746 3.26167 27.9243 3.38306C27.874 3.50445 27.8003 3.61475 27.7074 3.70767L25.4136 6.00016L27.7074 8.29266ZM24.8561 12.3752C24.6731 12.2583 24.4996 12.1271 24.3374 11.9827C24.2454 11.8994 24.1258 11.8533 24.0018 11.8533C23.8777 11.8533 23.7581 11.8994 23.6661 11.9827C22.9038 12.662 21.9106 13.024 20.89 12.9947C19.8693 12.9653 18.8986 12.5467 18.1766 11.8248C17.4546 11.1028 17.036 10.132 17.0066 9.11134C16.9773 8.0907 17.3393 7.09747 18.0186 6.33517C18.1009 6.24344 18.1463 6.1246 18.1463 6.00142C18.1463 5.87823 18.1009 5.75939 18.0186 5.66766C17.4397 5.01863 17.088 4.19858 17.017 3.33176C16.9459 2.46493 17.1594 1.59856 17.6249 0.863915C17.6697 0.790848 17.695 0.707487 17.6983 0.621837C17.7016 0.536186 17.6828 0.451122 17.6438 0.374811C17.6048 0.298501 17.5468 0.233506 17.4754 0.186067C17.404 0.138629 17.3216 0.11034 17.2361 0.103915C16.4953 0.0347487 15.7499 0.000165178 14.9999 0.000165178C9.86669 -0.019143 4.87038 1.65479 0.784892 4.76266C0.572223 4.9246 0.394335 5.1277 0.261831 5.35985C0.129328 5.592 0.0449207 5.84845 0.0136422 6.11392C-0.0177964 6.37873 0.00523949 6.64717 0.0813347 6.90276C0.15743 7.15834 0.284978 7.39567 0.456142 7.60017L13.4561 23.2789C13.6441 23.5059 13.88 23.6883 14.147 23.813C14.4139 23.9377 14.7052 24.0017 14.9999 24.0002C15.2937 24.0009 15.584 23.9366 15.8501 23.8119C16.1161 23.6872 16.3513 23.5052 16.5386 23.2789L24.9699 13.1152C25.0151 13.0607 25.0483 12.9973 25.0672 12.9291C25.0861 12.8609 25.0904 12.7895 25.0796 12.7196C25.0689 12.6496 25.0434 12.5827 25.0048 12.5234C24.9663 12.464 24.9156 12.4135 24.8561 12.3752Z" fill="#95CA5B"/>
</svg>
